<?xml version="1.0" encoding="utf-8"?>
<!-- Generator: Adobe Illustrator 18.1.1, SVG Export Plug-In . SVG Version: 6.00 Build 0)  -->
<svg version="1.1" id="Layer_1" xmlns="http://www.w3.org/2000/svg" xmlns:xlink="http://www.w3.org/1999/xlink" x="0px" y="0px"
	 viewBox="0 0 400 400" enable-background="new 0 0 400 400" xml:space="preserve">
<text transform="matrix(1 0 0 1 25036.9512 -25.0978)" font-family="'ArialMT'" font-size="21.9298">155,2</text>
<text transform="matrix(1 0 0 1 25091.834 -25.0978)" font-family="'ArialMT'" font-size="21.9298">0</text>
<text transform="matrix(1 0 0 1 25104.0273 -25.0978)" font-family="'ArialMT'" font-size="21.9298">4,50</text>
<text transform="matrix(1 0 0 1 25036.9512 1336.1549)" font-family="'ArialMT'" font-size="21.9298">235,8</text>
<text transform="matrix(1 0 0 1 25091.834 1336.1549)" font-family="'ArialMT'" font-size="21.9298">6</text>
<text transform="matrix(1 0 0 1 25104.0273 1336.1549)" font-family="'ArialMT'" font-size="21.9298">,90</text>
<text transform="matrix(1 0 0 1 25476.9004 2278.9958)" font-family="'MyriadPro-Regular'" font-size="93.5672">b9</text>
<text transform="matrix(1 0 0 1 25578.1309 2278.9958)" font-family="'MyriadPro-Regular'" font-size="93.5672">4</text>
<text transform="matrix(1 0 0 1 25626.1426 2278.9958)" font-family="'MyriadPro-Regular'" font-size="93.5672">a</text>
<text transform="matrix(1 0 0 1 25671.2266 2278.9958)" font-family="'MyriadPro-Regular'" font-size="93.5672">48 da</text>
<text transform="matrix(1 0 0 1 25884.9414 2278.9958)" font-family="'MyriadPro-Regular'" font-size="93.5672">n</text>
<text transform="matrix(1 0 0 1 25936.873 2278.9958)" font-family="'MyriadPro-Regular'" font-size="93.5672">ger </text>
<text transform="matrix(1 0 0 1 26086.4922 2278.9958)" font-family="'MyriadPro-Regular'" font-size="93.5672">r</text>
<text transform="matrix(1 0 0 1 26117.0762 2278.9958)" font-family="'MyriadPro-Regular'" font-size="93.5672">ed</text>
<text transform="matrix(1 0 0 1 25476.9004 2503.5591)" font-family="'MyriadPro-Regular'" font-size="93.5672">953</text>
<text transform="matrix(1 0 0 1 25620.9082 2503.5591)" font-family="'MyriadPro-Regular'" font-size="93.5672">b</text>
<text transform="matrix(1 0 0 1 25674.125 2503.5591)" font-family="'MyriadPro-Regular'" font-size="93.5672">39 hov</text>
<text transform="matrix(1 0 0 1 25938.2754 2503.5591)" font-family="'MyriadPro-Regular'" font-size="93.5672">e</text>
<text transform="matrix(1 0 0 1 25985.1465 2503.5591)" font-family="'MyriadPro-Regular'" font-size="93.5672">r </text>
<text transform="matrix(1 0 0 1 26035.584 2503.5591)" font-family="'MyriadPro-Regular'" font-size="93.5672">d</text>
<text transform="matrix(1 0 0 1 26088.3633 2503.5591)" font-family="'MyriadPro-Regular'" font-size="93.5672">a</text>
<text transform="matrix(1 0 0 1 26133.4512 2503.5591)" font-family="'MyriadPro-Regular'" font-size="93.5672">n</text>
<text transform="matrix(1 0 0 1 26185.3809 2503.5591)" font-family="'MyriadPro-Regular'" font-size="93.5672">g</text>
<text transform="matrix(1 0 0 1 26237.6914 2503.5591)" font-family="'MyriadPro-Regular'" font-size="93.5672">e</text>
<text transform="matrix(1 0 0 1 26284.5625 2503.5591)" font-family="'MyriadPro-Regular'" font-size="93.5672">r red</text>
<text transform="matrix(1 0 0 1 26773.1426 2053.6658)" font-family="'ArialMT'" font-size="129.8979">5cb85c gre</text>
<text transform="matrix(1 0 0 1 27415.834 2053.6658)" font-family="'ArialMT'" font-size="129.8979">e</text>
<text transform="matrix(1 0 0 1 27488.084 2053.6658)" font-family="'ArialMT'" font-size="129.8979">n</text>
<text transform="matrix(1 0 0 1 27560.334 2053.6658)" font-family="'ArialMT'" font-size="129.8979"> </text>
<text transform="matrix(1 0 0 1 27596.418 2053.6658)" font-family="'ArialMT'" font-size="129.8979">suc</text>
<text transform="matrix(1 0 0 1 27798.5566 2053.6658)" font-family="'ArialMT'" font-size="129.8979">c</text>
<text transform="matrix(1 0 0 1 27863.5234 2053.6658)" font-family="'ArialMT'" font-size="129.8979">ess</text>
<g id="Layer_2_1_" display="none">
</g>
<g id="Layer_3_1_">
</g>
<g>
	<path fill="#EB565A" d="M369.6,272.1c-0.2-10.9-6.5-20.2-16-24.7c3.8-4.7,5.3-9.4,4.4-14.9c-0.9-8.6-8-13.9-8.8-13.9
		c-0.8-0.8-2.4-1.5-3.9-1.5c-2.3,0-3.1-0.7-5.5-3c-2.4-2.3-7.1-6.1-14.1-6c-7.8,0.1-11.6,4.1-13.9,6.5c-2.3,1.6-3.1,3.2-5.4,3.2
		c-2.3,0-3.1-0.7-5.5-3c-2.4-2.3-7.1-6.1-14.1-6c-7.8,0.1-11.6,4.1-13.9,6.5c-2.3,1.6-3.1,3.2-5.4,3.2c-2.3,0.1-3.1-0.7-5.5-3
		c-2.4-2.3-7.1-6.1-14.1-6c-7.8,0.1-11.6,4.1-13.9,6.5c-2.3,1.6-3.1,3.2-5.4,3.2c-2.3,0.1-3.1-0.7-5.5-3s-7.1-6.1-14.1-6
		c-7,0.1-11.6,4.1-13.9,6.5c-2.3,1.6-3.1,3.2-5.4,3.2c-2.3,0.1-3.1-0.7-5.5-3c-2.4-2.3-7.1-6.1-14.1-6c-7,0.1-11.6,4.1-13.9,6.5
		c-2.3,1.6-3.1,3.2-5.4,3.2c-2.3,0.1-3.1-0.7-5.5-3c-2.4-2.3-7.1-6.1-14.1-6c-7.8,0.1-11.6,4.1-13.9,6.5c-2.3,1.6-3.1,3.2-5.4,3.2
		c-2.3,0-3.1-0.7-5.5-3s-7.1-6.1-14.1-6c-7.8,0.1-11.6,4.1-13.9,6.5c-2.3,1.6-3.1,3.2-5.4,3.2c-1.5,0-2.3,0-3.1-0.7
		c0.8-1.6,0.7-3.1,0.7-4.7c-0.8-3.9-4-6.2-7.9-5.3c-2.3,0-9.4,0.9-13.3-2.1c-0.8-0.8-3.2-2.3-2.5-8.5c-0.1-4.7,1.5-7,3.8-8.6
		c3.9-3.2,10.1-2.5,11.7-1.8c3.9,0.7,7-1.7,7.7-4.8c0.7-3.9-1.7-7-4.8-7.7c-0.8,0-2.3-0.7-3.9-0.7l-0.1-9.4
		c-0.1-3.1,2.3-5.5,5.4-5.6h0.8l267.4-4.2h0.8c3.1-0.1,5.5,2.3,5.6,5.4v0.8c-7,1.7-12.4,4.9-13.2,5.7c-3.1,1.6-3.8,5.5-2.2,9.4
		c1.6,3.1,6.3,3.8,9.4,2.2c3.1-2.4,11.6-5.6,16.3-4.2c0.8,0,2.4,1.5,3.9,3.8c4.9,10.8-9.9,18.1-10.6,18.9c-3.1,1.6-4.6,5.5-3,8.6
		c0.8,2.3,3.2,3.9,6.3,3.8c0.8,0,1.5,0,3.1-0.8c9.3-4.8,23.9-17.5,16.6-35.4c-2.4-5.4-6.4-9.3-11.9-11.5h-0.8v-0.8
		c0-2.3-0.8-4.7-1.7-7c9.3-4,16.2-12.7,16-23.7c-0.1-9.4-4.9-17.1-12.8-21.6c-14-46.6-52.7-77.2-96.3-76.5l-115.4,1.8
		c-42.1,0.7-79.8,32.5-93.2,77.1c-10.9,3.3-18.5,12.8-18.3,24.5c0.2,10.9,7.3,19.4,16.7,23.1c-0.7,2.3-1.5,4.7-1.5,7l0.2,10.9
		c-1.5,0.8-3.9,1.6-5.4,3.2c-3.9,3.2-8.5,8.7-8.3,18.9c-0.6,10.1,4.2,15.5,7.3,18.6c0.8,0.8,2.4,1.5,3.2,2.3
		c-2.3,4.7-5.3,11-4.4,18.8c0.1,4.7,2.5,8.5,4.9,12.4c-9.3,4.8-15.4,14.3-15.2,25.2c0.1,9.4,5,17.9,12.8,22.4l0.4,25.7
		c0.4,21.8,18.6,39.5,40.4,39.2l240.9-3.8c21.8-0.4,39.5-18.6,39.2-40.4l-0.4-25.7C365.2,290.1,369.7,281.4,369.6,272.1z
		 M138.4,48.7l115.4-1.8c35.1-0.6,66.6,23.1,80.5,60.4L59,111.6C72.5,74.7,103.3,49.3,138.4,48.7z M52.2,124.2l284.6-4.5
		c7-0.1,12.6,5.3,12.7,12.3s-5.3,12.6-12.3,12.7l-284.6,4.5c-7,0.1-12.6-5.3-12.7-12.3C39.8,129.8,45.2,124.3,52.2,124.2z
		 M342.5,286.5l-184,2.9l26.1-29.3c0.8,0,0.8,0,1.5,0l156.7-2.5c7.8-0.1,14.1,6,14.2,13.8C357.2,279.2,350.3,286.4,342.5,286.5z
		 M304.5,300.4l-16.1,18.2L271,300.9L304.5,300.4z M81.9,228.2c2.3-1.6,3.1-3.2,5.4-3.2c2.3,0,3.1,0.7,5.5,3c2.4,2.3,7.1,6.1,14.1,6
		c7.8-0.1,11.6-4.1,13.9-6.5c2.3-1.6,3.1-3.2,5.4-3.2c2.3,0,3.1,0.7,5.5,3s7.1,6.1,14.1,6c7.8-0.1,11.6-4.1,13.9-6.5
		c2.3-1.6,3.1-3.2,5.4-3.2c2.3,0,3.1,0.7,5.5,3c2.4,2.3,7.1,6.1,14.1,6c7.8-0.1,11.6-4.1,13.9-6.5c2.3-1.6,3.1-3.2,5.4-3.2
		c2.3-0.1,3.1,0.7,5.5,3c2.4,2.3,7.1,6.1,14.1,6c7.8-0.1,11.6-4.1,13.9-6.5c2.3-1.6,3.1-3.2,5.4-3.2c2.3,0,3.1,0.7,5.5,3
		c2.4,2.3,7.1,6.1,14.1,6c7-0.1,11.6-4.1,13.9-6.5c2.3-1.6,3.1-3.2,5.4-3.2c2.3,0,3.1,0.7,5.5,3c2.4,2.3,7.1,6.1,14.1,6
		c7.8-0.1,11.6-4.1,13.9-6.5c2.3-1.6,3.1-3.2,5.4-3.2c2.3,0,3.1,0.7,5.5,3c2.4,2.3,5.6,5.4,11.8,5.3c0.8,0.8,1.6,2.3,2.4,3.9
		c0.1,3.1-2.3,5.5-3.8,7.9c-0.8,0.8-1.5,1.6-1.5,3.1l-149.7,2.3c0-0.8-0.8-1.5-1.6-2.3c-2.4-2.3-7-2.2-9.4,0.9l-55.2,62.5
		l-63.4-63.7c-2.4-2.3-7-2.2-9.4,0.1l-0.8,0.8c-2.4-2.3-3.2-4.6-3.2-7c-0.1-3.9,1.4-8.6,3.7-11.8c0.8,0.8,1.6,0.8,2.4,2.3
		c2.4,2.3,7.1,6.1,14.1,6C75.8,234.5,79.6,230.6,81.9,228.2z M51.2,262.2l8.6-0.1l28.5,28.4l-36.6,0.6c-7.8,0.1-14.1-6-14.2-13.8
		C37.3,269.4,43.5,262.3,51.2,262.2z M345.4,321.6c0.2,14.8-12,27.5-26.9,27.7L77.6,353c-14.8,0.2-27.5-12-27.7-26.9l-0.4-21.8
		c0.8,0,1.5,0,2.3,0l49.9-0.8l18.2,18.4c1.6,1.5,3.2,2.3,4.7,2.3l0,0c1.5,0,3.9-0.8,4.6-2.4l16.9-19h0.8l106-1.7l31.7,31.5
		c1.6,1.5,3.2,2.3,4.7,2.3l0,0c1.5,0,3.9-0.8,4.6-2.4l28.3-32.4l0,0l20.3-0.3c0.8,0,1.5,0,2.3,0L345.4,321.6L345.4,321.6z"/>
	<path fill="#EB565A" d="M100,190.5c1.6,1.5,3.9,2.3,6.3,2.3c1.5,0,3.1-0.8,4.6-1.6c0,0,18.5-12.8,34.2-6c3.9,1.5,8.6,0.6,10.1-2.5
		c2.3-3.2,0.7-7-3.2-8.5c-13.4-6-26.6-3.5-36.7-0.2c-27.5-10.5-46.8,0.7-52.9,8.6c-2.3,3.2-1.5,7,1.7,9.3c1.6,0.8,3.1,1.5,4.7,1.5
		c2.3,0,4.7-0.8,6.2-2.4c0.8-0.8,9.2-9.5,25.6-6.6C97.6,185.9,97.7,188.2,100,190.5z"/>
	<path fill="#EB565A" d="M140.4,79.1c1.5,0,3.1-0.8,4.6-1.6l8.5-8.7c2.3-2.4,2.2-7-0.1-9.4c-2.4-2.3-7-2.2-9.4,0.1l-8.5,8.7
		c-2.3,2.4-2.2,7,0.1,9.4C137.3,79.2,138.8,79.2,140.4,79.1z"/>
	<path fill="#EB565A" d="M176.1,69.2c1.6,1.5,3.2,2.3,4.7,2.3c1.5,0,3.1-0.8,3.9-1.6c3.1-2.4,3-6.3,0.6-9.4l-7.1-7.7
		c-2.4-3.1-6.3-3-9.4-0.6c-3.1,2.4-3,6.3-0.6,9.4L176.1,69.2z"/>
	<path fill="#EB565A" d="M197.5,89.2c1.6,0.8,2.4,1.5,3.9,1.5c1.5,0,3.9-0.8,5.4-2.4l6.9-9.5c2.3-3.2,1.5-7-0.9-9.4
		c-3.2-2.3-7-1.5-9.4,0.9l-6.9,9.5C193.5,82.2,194.3,86.8,197.5,89.2z"/>
	<path fill="#EB565A" d="M235.5,79.2c1.6,1.5,3.1,1.5,4.7,1.5c1.5,0,3.1-0.8,4.6-2.4c2.3-2.4,2.2-7-0.1-9.4l-8.7-7.7
		c-2.4-2.3-7-2.2-9.4,0.1c-2.3,2.4-2.2,7,0.1,9.4L235.5,79.2z"/>
	<path fill="#EB565A" d="M271.5,83.3c0.8,3.1,3.2,4.6,6.3,4.6c0.8,0,1.5,0,2.3,0c3.1-0.8,5.4-4.8,3.8-8.6l-4.1-11.6
		c-0.8-3.1-4.8-5.4-8.6-3.8c-3.1,0.8-5.4,4.8-3.8,8.6L271.5,83.3z"/>
	<path fill="#EB565A" d="M150.8,96.9c1.6,2.3,3.2,3.9,5.5,3.8c0.8,0,2.3,0,3.1-0.8l10.1-5.6c3.1-1.6,4.6-5.5,3-8.6
		c-1.6-3.1-5.5-4.6-8.6-3l-10.1,5.6C149.9,89.9,148.4,93.8,150.8,96.9z"/>
	<path fill="#EB565A" d="M112.5,87.3c1.6,0.8,3.1,1.5,4.7,1.5c1.5,0,3.9-0.8,4.6-2.4c2.3-2.4,2.2-7-0.9-9.4l-8.7-6.9
		c-2.4-2.3-7-2.2-9.4,0.9c-2.3,2.4-2.2,7,0.9,9.4L112.5,87.3z"/>
	<path fill="#EB565A" d="M81.4,97.2c1.6,1.5,3.2,3.1,5.5,3c1.5,0,2.3,0,3.9-0.8l8.5-5.6c3.1-2.4,3.8-6.3,1.4-9.4
		c-2.4-3.1-6.3-3.8-9.4-1.4l-8.5,5.6C79.7,90.2,79,94.1,81.4,97.2z"/>
	<path fill="#EB565A" d="M296.7,99.3c1.5,0,3.1-0.8,4.6-2.4L309,89c2.3-2.4,2.2-7-0.1-9.4c-2.4-2.3-7-2.2-9.4,0.1l-7.7,7.9
		c-2.3,2.4-2.2,7,0.1,9.4C293.5,98.5,295.1,99.3,296.7,99.3z"/>
	<path fill="#EB565A" d="M188.2,191.4c1.6,1.5,3.9,2.3,6.3,2.3c1.5,0,3.1-0.8,4.6-1.6c0,0,18.5-12.8,34.2-6
		c3.9,1.5,8.6,0.6,10.1-2.5c2.3-3.2,0.7-7-3.2-8.5c-13.4-6-26.6-3.5-36.7-0.2c-27.5-10.5-46.8,0.7-52.9,8.6c-2.3,3.2-1.5,7,1.7,9.3
		c1.6,0.8,3.1,1.5,4.7,1.5c2.3,0,4.7-0.8,6.2-2.4c0.8-0.8,9.2-9.5,25.6-6.6C186.5,186.8,186.6,189.1,188.2,191.4z"/>
	<path fill="#EB565A" d="M273.1,190.1c1.6,1.5,3.9,2.3,6.3,2.3c1.5,0,3.1-0.8,4.6-1.6c0,0,18.5-12.8,34.2-6
		c3.9,1.5,8.6,0.6,10.1-2.5c2.3-3.2,0.7-7-3.2-8.5c-13.4-6-26.6-3.5-36.7-0.2c-27.5-10.5-46.8,0.7-52.9,8.6c-2.3,3.2-1.5,7,1.7,9.3
		c1.6,0.8,3.1,1.5,4.7,1.5c2.3,0,4.7-0.8,6.2-2.4c0.8-0.8,9.2-9.5,25.6-6.6C270.7,185.5,271.5,187.8,273.1,190.1z"/>
</g>
</svg>
