<?xml version="1.0" encoding="utf-8"?>
<!-- Generator: Adobe Illustrator 18.1.1, SVG Export Plug-In . SVG Version: 6.00 Build 0)  -->
<svg version="1.1" id="Layer_1" xmlns="http://www.w3.org/2000/svg" xmlns:xlink="http://www.w3.org/1999/xlink" x="0px" y="0px"
	 viewBox="0 0 400 400" enable-background="new 0 0 400 400" xml:space="preserve">
<g id="Layer_2_1_" display="none">
</g>
<g id="Layer_3_1_">
</g>
<g>
	<g>
		<path fill="#9BCC32" d="M361.5,189.1c0-3.1,0-5.5,0-8.6l0,0l-0.8-3.1c0-0.8-0.8-3.1-0.8-4.7v-2.3c0-2.3,0-4.7-0.8-7
			c0-2.3,0-4.7-0.8-6.2c0-0.8,0-0.8-0.8-0.8h-0.8l-0.8-3.1c-0.8-0.8-0.8-2.3-0.8-3.1l0,0l-0.8-3.1c-0.8-1.5-0.8-3.1-0.8-4.7
			c0-0.8,0-1.5,0-2.3c0-0.8,0-0.8-0.8-1.5v-0.8c0-0.8,0-0.8-0.8-1.5c-0.8-0.8-0.8-0.8-0.8-2.3c-0.8,0-0.8-0.8-0.8-2.3
			c-0.8-0.8-0.8-0.8-0.8-2.3c0-0.8-0.8-0.8-0.8-1.5c-0.8-0.8-0.8-1.5-1.5-3.1c-0.8-1.5-1.5-3.9-2.3-4.7c0-0.8-0.8-0.8-0.8-1.5
			c0-0.8-0.8-0.8-0.8-1.5c-0.8-0.8-0.8-0.8-0.8-1.5l0,0l-0.8-3.1c0-0.8-0.8-0.8-0.8-1.5c-0.8-0.8-1.5-1.5-1.5-3.1
			c-0.8,0-0.8-0.8-0.8-0.8h-0.8l-0.8-3.1c-0.8-0.8-0.8-1.5-0.8-2.3c-0.8-0.8-0.8-0.8-0.8-1.5c-0.8-0.8-0.8-1.5-0.8-3.1
			c-0.8-0.8-0.8-0.8-0.8-1.5l-0.8-0.8l-5.5-8.6c-2.3-3.1-3.9-6.2-5.5-9.4h-0.8l-1.5-3.1c-0.8-0.8-0.8-2.3-0.8-3.1l-0.8-0.8
			c-0.8-0.8-1.5-1.5-2.3-3.1c-0.8-0.8-0.8-0.8-1.5-1.5c-0.8-0.8-0.8-0.8-0.8-1.5c-0.8-0.8-0.8-0.8-1.5-0.8l-0.8-0.8
			c-1.5-1.5-3.1-3.1-4.7-4.7c-0.8-0.8-0.8-0.8-0.8-0.8c-0.8-0.8-0.8-0.8-1.5-1.5c-0.8-0.8-0.8-0.8-1.5-1.5c-0.8-0.8-0.8-0.8-0.8-0.8
			v-1.5c-0.8-0.8-0.8-0.8-0.8-0.8s-0.8,0-0.8-0.8c-0.8-0.8-1.5-0.8-3.1-1.5c0,0-0.8,0-0.8-0.8h-0.8c-1.5-0.8-3.1-0.8-3.9-1.5
			c-0.8,0-0.8-0.8-1.5-0.8c-0.8-0.8-1.5-0.8-3.1-0.8c-0.8-0.8-0.8-0.8-0.8-0.8c-0.8,0-1.5-0.8-2.3-0.8s-0.8-0.8-2.3-0.8
			c-0.8,0-0.8-0.8-2.3-0.8c-0.8,0-0.8-0.8-2.3-0.8c-0.8,0-0.8-0.8-2.3-0.8c-0.8,0-0.8-0.8-2.3-0.8c-0.8,0-0.8-0.8-2.3-0.8
			c-0.8,0-0.8-0.8-2.3-0.8c-0.8,0-0.8-0.8-1.5-0.8h-0.8h-0.8c-3.1-0.8-5.5-0.8-8.6-0.8c-1.5,0-3.9,0-6.2,0c-3.1,0-6.2-0.8-8.6-0.8
			c-3.1-0.8-4.7-0.8-7-0.8c-0.8,0-1.5-0.8-3.1-0.8h-0.8c-0.8,0-2.3-0.8-3.1-0.8h-0.8c-2.3,0-3.9-0.8-5.5-0.8c-0.8,0-0.8,0-0.8,0
			c-0.8,0-1.5,0-3.1-0.8h-0.4c-0.8,0-2.3-0.8-3.1-0.8c-2.3-0.8-4.7-0.8-7-0.8c-0.8,0-2.3,0-3.9,0c-0.8,0-1.5,0-2.3-0.8l-4.7,0.8
			c-4.7,0.8-8.6,0.8-11.7,0.8h-0.8c-1.5,0-3.1,0.8-3.9,0.8c-2.3,0-4.7,0.8-6.2,0.8c-0.8,0.8-3.1,0.8-3.9,1.5
			c-0.8,0.8-2.3,0.8-3.1,1.5c-0.8,0.8-1.5,0.8-3.1,0.8c-0.8,0-0.8,0.8-1.5,0.8c0,0-0.8,0-0.8,0.8l0,0h-3.1c-0.8,0.8-1.5,0.8-3.1,0.8
			c0,0,0,0-0.8,0c-0.8,0.8-0.8,0.8-2.3,1.5c-0.8,0.8-1.5,0.8-2.3,0.8c-0.8,0.8-0.8,0.8-0.8,0.8c-0.8,0.8-1.5,0.8-2.3,0.8
			c-0.8,0.8-0.8,0.8-1.5,0.8s-0.8,0.8-0.8,0.8c-0.8,0.8-0.8,0.8-0.8,0.8c-0.8,0.8-0.8,0.8-2.3,0.8c-0.8,0-0.8,0.8-0.8,0.8l-0.8,0.8
			c-0.8,0.8-0.8,0.8-0.8,0.8l-0.8,0.8c-0.8,0.8-1.5,0.8-2.3,1.5c-0.8,0-0.8,0.8-0.8,0.8c-0.8,0.8-0.8,0.8-1.5,1.5
			c-0.8,0.8-0.8,0.8-1.5,0.8c-1.5,0.8-3.1,3.1-3.9,3.9c-3.1,3.1-5.5,5.5-8.6,7.8c-2.3,0.8-4.7,2.3-7,3.1c-1.5,0.8-3.1,0.8-3.9,1.5
			c-0.7,0.8-0.7,0.8-0.7,0.8c-0.8,0.8-1.5,0.8-2.3,1.5c-0.8,0.8-1.5,1.5-2.3,2.3c-0.8,0.8-2.3,2.3-3.1,3.1c-0.8,0.8-2.3,2.3-3.1,3.1
			c-0.8,0.8-2.3,0.8-3.1,1.5c-0.8,0.8-0.8,0.8-0.8,0.8c-0.8,0.8-0.8,0.8-1.5,2.3c-0.8,0.8-1.5,0.8-2.3,1.5c-0.8,0.8-0.8,0.8-1.5,1.5
			c-0.8,0.8-0.8,0.8-1.5,1.5c-0.8,0.8-0.8,0.8-2.3,2.3c-0.8,0.8-0.8,0.8-1.5,1.5c-0.8,0-0.8,0.8-0.8,0.8c-0.8,0.8-0.8,2.3-1.5,3.1
			c-0.8,0.8-0.8,0.8-0.8,1.5c0,0,0,0,0,0.8c-0.8,1.5-1.5,3.1-2.3,3.9c-0.8,0.8-0.8,0.8-0.8,1.5c0,0.8-0.8,0.8-0.8,0.8
			c-0.8,0.8-0.8,1.5-0.8,2.3l-0.8,0.8c0,0.8-0.8,1.5-0.8,3.1c-0.8,0.8-1.5,1.5-2.3,3.1c0,0.8-0.8,0.8-0.8,0.8c0,0.8-0.8,0.8-0.8,0.8
			c-0.8,0.8-0.8,2.3-2.3,3.1c0,0.8-0.8,0.8-0.8,1.5c-0.8,0.8-0.8,0.8-1.5,1.5c-0.8,0.8-0.8,0.8-1.5,2.3c-0.8,0.8-0.8,0.8-0.8,0.8
			c-0.8,0.8-0.8,0.8-1.5,1.5c0,0.8-0.8,1.5-0.8,2.3c-0.8,0.8-0.8,0.8-0.8,1.5c0,0.8-0.8,0.8-0.8,0.8s-0.8,0.8-0.8,1.5
			c-0.8,0.8-0.8,0.8-1.5,1.5c0,0.8-0.8,0.8-0.8,0.8c0,0.8-0.8,1.5-0.8,2.3s-0.8,0.8-0.8,2.3l-0.8,1.5l-0.8-3.1c0,0-0.8,1.5-0.8,2.3
			s-0.8,3.1-0.8,3.1v0.8c0,0.8-0.8,2.3-0.8,3.1c0,0-0.8,3.1-2.3,5.5c0,0.8,0,0.8,0,2.3c-0.8,4.7-3.1,9.4-3.9,14
			c-0.8,1.5-0.8,3.9-1.5,5.5c-3.1,10.1-4.7,21.1-4.7,34.3c0,0.8-0.8,2.3-0.8,3.1c-0.8,7-0.8,12.5,0,18.7h0.8l0.8,3.9
			c0,1.5,0.8,3.1,0.8,4.7l0,0l0.8,3.1c0,0.8,0,0.8,0,0.8l0.8,1.5c0.8,4.7,2.3,8.6,3.1,10.9c0.8,0.8,0.8,3.1,0.8,3.9v0.8
			c0,0.8,0.8,1.5,0.8,2.3l0,0l0.8,3.1c0.8,3.1,1.5,4.7,1.5,4.7c0,0.8,0.8,0.8,0.8,0.8c0.8,0.8,0.8,1.5,0.8,1.5s0.8,2.3,0.8,3.1l0,0
			l0.8,3.1c0.8,0.8,0.8,2.3,0.8,3.1c0.8,0.8,0.8,1.5,0.8,2.3c0.8,2.3,1.5,3.9,3.1,6.2l1.5,3.1c0,0.8,0.8,1.5,0.8,2.3
			c0.8,0.8,0.8,3.1,1.5,3.1c0.8,0.8,0.8,0.8,0.8,2.3C59,303,59,303,59,303.8c0.8,0.8,0.8,0.8,0.8,1.5c0.8,0.8,1.5,0.8,3.1,2.3
			c0.8,0.8,0.8,1.5,2.3,3.1c0,0.8,0.8,0.8,0.8,0.8c3.1,0.8,5.5,4.7,6.2,4.7c0,0,0-0.8-0.8-0.8l0.8,0.8l0,0C73,317,73,317,73,318.6
			c0.8,0.8,0.8,0.8,0.8,0.8c0.8,0,2.3,0.8,3.1,1.5c0.8,0.8,2.3,2.3,3.1,3.1l3.1,3.1c0.8,0.8,1.5,1.5,3.1,3.1
			c0.8,0.8,1.5,1.5,2.3,2.3c0.8,0.8,1.5,1.5,2.3,2.3l0.8,0.8c0.8,0.8,0.8,0.8,1.5,0.8c0,0,1.5,1.5,2.3,1.5c0.8,0.8,1.5,0.8,3.1,1.5
			h0.8l1.5,0.8c0.8,0.8,0.8,0.8,1.5,1.5c0.8,0.8,3.1,1.5,3.9,2.3l0.8,0.8c3.1,1.5,7,3.1,9.4,4.7c0.8,0.8,2.3,0.8,3.1,1.5h0.8
			l0.8,0.8c0.8,0,0.8,0.8,0.8,0.8h0.8h0.8c0.8,0,1.5,0.8,2.3,0.8h0.8h0.8c0.8,0.8,2.3,0.8,3.1,2.3l0,0c0.8,0.8,1.5,0.8,2.3,0.8
			c1.5,0.8,3.1,1.5,3.9,2.3h0.8c0.8,0,1.5,0.8,3.1,0.8l5.5,1.5l0,0c0.8,0,0.8,0,0.8,0.8c0.8,0,1.5,0.8,1.5,0.8
			c1.5,0,3.1,0.8,3.9,0.8c0.8,0,0.8,0,1.5,0.8c3.1,0.8,6.2,0.8,7.8,2.3h0.8c0.8,0,1.5,0,3.1,0.8h0.8h0.8c0.8,0,1.5,0.8,3.1,0.8
			c1.5,0,2.3,0.8,3.1,0.8c0.8,0.8,2.3,0.8,3.1,0.8c3.1,0.8,6.2,0.8,9.4,0.8c3.9,0,7,0.8,10.1,0.8h0.8c0.8,0,0.8,0,1.5,0
			c0.8,0,1.5,0,2.3,0c1.5,0,3.1,0,3.9,0.8h0.8c0.8,0,2.3,0,3.1,0c3.1,0,6.2-0.8,8.6-0.8c1.5,0,3.1-0.8,4.7-0.8
			c2.3-0.8,4.7-0.8,7-0.8c0,0,17.9-3.9,18.7-3.9l0,0l3.1-0.8c0.8,0,1.5-0.8,2.3-0.8s1.5-0.8,3.1-0.8c4.7-1.5,9.4-3.1,12.5-4.7v-0.8
			l3.1-0.8c0.8-0.8,1.5-0.8,2.3-0.8c0.8-0.8,0.8-0.8,2.3-1.5c0.8-0.8,2.3-0.8,3.1-0.8l0,0c0.8-0.8,2.3-1.5,4.7-2.3
			c0.8,0,0.8-0.8,2.3-0.8c0.8-0.8,1.5-0.8,2.3-0.8c0.8-0.8,0.8-0.8,2.3-0.8c0.8,0,1.5-0.8,2.3-0.8c0.8-0.8,3.1-2.3,4.7-3.9
			c0.8-0.8,1.5-1.5,3.1-2.3c0.8-0.8,2.3-2.3,3.9-3.1c1.5-0.8,3.9-3.1,4.7-3.9c0.8-2.3,3.1-3.1,4.7-4.7c0,0,0,0,0.8,0
			c0-0.8,0.8-1.5,0.8-2.3s0.8-0.8,0.8-1.5c0.8-0.8,0.8-0.8,1.5-1.5c0.8-0.8,2.3-3.1,3.9-4.7c0-0.8,0.8-1.5,0.8-2.3
			c0.8-0.8,0.8-0.8,1.5-1.5c0-0.8,0.8-0.8,0.8-0.8c0-0.8,0.8-0.8,0.8-2.3c0.8-0.8,0.8-0.8,1.5-1.5c0-0.8,0.8-0.8,0.8-0.8l0,0
			c0-0.8,0-0.8,0.8-0.8c0.8-0.8,0.8-0.8,0.8-1.5c0-0.8,0.8-1.5,0.8-2.3s0.8-0.8,0.8-1.5c0.8-0.8,0.8-0.8,0.8-1.5
			c0-0.8,0.8-0.8,0.8-0.8c0.8-0.8,0.8-0.8,0.8-1.5c0-0.8,0.8-0.8,0.8-0.8s0.8-0.8,0.8-1.5c0.8-0.8,0.8-0.8,0.8-1.5
			c0-0.8,0.8-0.8,0.8-1.5c0.8-0.8,0.8-0.8,0.8-0.8c0-0.8,0.8-0.8,0.8-1.5c0.8-0.8,0.8-0.8,0.8-1.5c0-0.8,0-0.8,0-0.8
			s0.8-1.5,1.5-3.1c0.8-1.5,0.8-3.1,1.5-4.7c0.8-2.3,0.8-4.7,2.3-7c1.5-4.7,3.1-6.2,3.1-7v-0.8c0-0.8,0.8-2.3,0.8-3.1
			s0.8-0.8,0.8-0.8c0-0.8,0.8-1.5,0.8-2.3s0-0.8,0-0.8c0-0.8,0.8-3.1,0.8-3.9c0.8-1.5,0.8-3.1,1.5-3.9v-0.8c0-0.8,0.8-2.3,0.8-3.1
			s0.8-0.8,0.8-0.8c0-0.8,0.8-1.5,0.8-3.1c0.8-0.8,0.8-3.1,0.8-3.9c0-0.8,0.8-3.1,0.8-3.9c0-0.8,0.8-1.5,0.8-2.3
			c0.8-2.3,0.8-4.7,1.5-7c0.8-2.3,0.8-4.7,0.8-7.8c0.8-3.9,0.8-7.8,1.5-10.9c0-0.8,0-0.8,0-0.8c0-0.8,0-1.5,0.8-1.5l0.8-1.5
			c0-0.8,0-0.8,0.8-1.5c0-0.8,0-1.5,0-3.1c0.8-0.8,0.8-3.1,0.8-5.5v-1.5c0-1.5,0-3.1,0.8-4.7c0-0.8,0-1.5,0-2.3
			C361.5,191.4,361.5,189.8,361.5,189.1C361.5,192.2,361.5,190.6,361.5,189.1L361.5,189.1z M331.1,197.6c0,0.8-0.8,3.1-0.8,3.9
			c0,1.5-0.8,3.1-0.8,4.7c0,0.8,0,3.1,0,3.9c0,1.5,0,3.9-0.8,6.2l0,0c0,1.5,0.8,3.9-0.8,6.2c0,0.8-0.8,3.1-0.8,3.9v0.8
			c-0.8,0.8-0.8,3.1-0.8,4.7s-0.8,3.1-0.8,4.7c0,3.1-0.8,4.7-0.8,7.8c-0.8,3.1-2.3,7-3.9,10.9l-0.8,3.1l-0.8,1.5
			c0,0.8-0.8,0.8-0.8,1.5c0,0.8-0.8,0.8-0.8,0.8v0.8c0,0.8-0.8,1.5-0.8,3.1l-0.8,0.8c0,0.8-0.8,1.5-0.8,3.1c0,0.8-0.8,0.8-0.8,1.5
			c0,0.8-0.8,0.8-0.8,0.8v0.8c0,0.8-0.8,1.5-0.8,3.1c0,0.8,0,0.8-0.8,0.8c-0.8,0.8-0.8,2.3-0.8,3.1l-0.8,0.8c0,0.8,0,1.5-0.8,3.1
			c-0.8,0.8-0.8,1.5-1.5,2.3c0,0.8-0.8,0.8-0.8,1.5c-0.8,0.8-1.5,2.3-2.3,3.9c-0.8,0.8-0.8,1.5-1.5,1.5c-0.8,0.8-3.9,6.2-3.9,6.2
			l-0.8,0.8c-0.8,0.8-0.8,2.3-2.3,3.1l-0.8,0.8c-0.8,0.8-0.8,0.8-0.8,1.5c0,0.8-0.8,0.8-0.8,1.5c0,0.8-0.8,0.8-0.8,1.5l-1.5,3.1
			h-0.8c-0.8,0.8-0.8,0.8-1.5,0.8c-0.8,1.5-0.8,3.1-2.3,3.1c-1.5,1.5-3.9,3.1-6.2,5.5c-1.5,1.5-3.1,3.1-4.7,4.7
			c-0.8,0.8-0.8,2.3-3.1,3.1c-0.8,0.8-0.8,0.8-1.5,0.8c-0.8,0.8-0.8,0.8-1.5,1.5c0,2.3-0.8,2.3-1.5,2.3c-0.8,0.8-1.5,1.5-3.1,2.3
			l-1.5,0.8H263l-0.8,0.8c-3.1,1.5-4.7,3.1-6.2,3.1c-0.8,0-0.8,0.8-0.8,0.8c-0.8,0.8-1.5,0.8-3.1,0.8c-0.8,0-1.5,0.8-1.5,0.8
			c-0.8,0.8-2.3,0.8-4.7,2.3v0.8l-1.5,0.8c-1.5,0.8-3.1,0.8-3.9,0.8l0,0c-0.8,0.8-0.8,0.8-1.5,0.8c0,0-2.3,0.8-3.1,0.8
			c-1.5,0.8-3.1,0.8-5.5,0.8c-0.8,0-3.1,0.8-3.9,0.8s-2.3,0.8-3.1,0.8c-1.5,0.8-3.1,0.8-4.7,0.8h-1.5c-2.3,0.8-4.7,0.8-7.8,0.8
			c-1.5,0-3.1,0-4.7,0c-4.7,0-10.9-0.8-15.6-0.8l-4.7-0.8c-3.1-0.8-5.5-0.8-8.6-0.8h-3.1c-3.1-0.8-7-0.8-10.1-2.3
			c-0.8,0-0.8-0.8-2.3-0.8c-0.8,0-0.8,0-1.5,0c-1.5,0-3.1-0.8-5.5-0.8c-0.8,0-0.8-0.8-2.3-0.8c-0.8,0-0.8-0.8-2.3-0.8
			c-1.5-0.8-3.9-0.8-8.6-3.1h-0.6h-0.8l-0.8-0.8c-0.8-0.8-1.5-0.8-2.3-1.5h-0.8c-1.5-0.8-3.1-0.8-4.7-1.5c-0.8,0-0.8-0.8-0.8-0.8
			h-1.5l-1.5-2.3c-0.8,0-0.8-0.8-1.5-0.8c-0.8-0.8-0.8-0.8-1.5-1.5l0,0l-0.8-0.8c-0.8,0-0.8-0.8-0.8-0.8c-0.8-0.8-2.3-0.8-3.1-0.8
			c-0.8-0.8-2.3-0.8-3.1-0.8c-0.8-0.8-2.3-0.8-3.1-0.8c-3.1-0.8-6.2-3.9-9.4-7c-0.8-0.8-1.5-1.5-2.3-2.3c-0.8-0.8-0.8-0.8-1.5-1.5
			c-0.8-0.8-0.8-0.8-1.5-0.8c-1.5-0.8-6.2-3.9-7.8-7.8c-0.8-0.8-1.5-0.8-2.3-2.3c-0.8-0.8-0.8-1.5-0.8-2.3c-0.8-0.8-0.8-0.8-0.8-1.5
			c-0.8-0.8-0.8-1.5-0.8-3.1l0,0c-0.8-0.8-0.8-0.8-1.5-1.5c-0.8-0.8-0.8-1.5-0.8-2.3c-0.8-1.5-1.5-3.1-2.3-4.7c0-0.8,0-0.8-0.8-0.8
			c-0.8-0.8-1.5-1.5-2.3-3.1v-0.8l0,0l-1.5-3.9c-0.8-0.8-0.8-2.3-0.8-3.1s0-0.8,0-0.8l0,0c-0.8-0.8-0.8-2.3-3.1-6.2
			c-0.8-0.8-0.8-1.5-0.8-2.3c-0.8-0.8-0.8-1.5-0.8-2.3l0,0c-0.8-0.8-1.5-1.5-1.5-3.1c0-0.8-0.8-1.5-0.8-2.3s-0.8-0.8-0.8-1.5
			c-0.8-0.8-0.8-3.1-0.8-3.9l0,0c-0.8-0.8-0.8-1.5-1.5-3.1c-0.8-0.8-0.8-1.5,0-3.1l0,0c-0.8-0.8-0.8-2.3-0.8-3.1
			c-0.8-1.5-0.8-3.1-0.8-4.7v-0.8c-0.8-0.8-0.8-1.5-0.8-3.1v-1.5c-0.8-7-0.8-16.4,0-24.2c0-0.8,0.8-1.5,0.8-2.3s0.8-2.3,0.8-3.1
			c0.8-1.5,0.8-3.1,0.8-3.9c0-1.5,0.8-4.7,0.8-7c0.8-1.5,0.8-3.1,0.8-4.7c0.8-0.8,0.8-2.3,0.8-3.1s0-0.8,0-1.5c0-1.5,0-3.1,0.8-5.5
			l0.8-0.8c0-2.3,0-4.7,0.8-7c0-0.8,0.8-0.8,0.8-1.5c0-0.8,0-1.5,0.8-2.3c0-1.5,0.8-3.9,0.8-6.2l0.8-3.1H73c0-0.8,0.8-0.8,0.8-1.5
			c0.8-0.8,0.8-1.5,1.5-1.5c0-0.8,0.8-0.8,0.8-1.5c0.8-0.8,0.8-0.8,0.8-1.5c0-0.8,0.8-1.5,0.8-3.1c0.8-0.8,0.8-0.8,0.8-1.5
			c0-0.8,0.8-0.8,0.8-2.3c0.8-0.8,0.8-1.5,2.3-2.3c0-0.8,0.8-0.8,0.8-1.5c0.8-0.8,0.8-0.8,0.8-0.8c0-0.8,0.8-0.8,0.8-2.3
			c0.8-0.8,0.8-1.5,2.3-2.3c0-0.8,0.8-1.5,0.8-3.1c0-0.8,0.8-0.8,0.8-0.8c0.8-1.5,0.8-3.1,2.3-3.1l0,0c0-0.8,0.8-0.8,0.8-1.5
			c0.8-0.8,0.8-1.5,1.5-1.5c0.8-1.5,0.8-3.1,2.3-3.1l0,0c0-0.8,0.8-0.8,0.8-0.8c0.8-0.8,0.8-0.8,0.8-0.8c0-0.8,0.8-1.5,0.8-2.3
			c0.8-0.8,0.8-1.5,2.3-1.5c0-0.8,0.8-0.8,0.8-1.5c0.8-0.8,0.8-0.8,0.8-0.8c0-0.8,0.8-1.5,0.8-2.3c0.8-0.8,1.5-2.3,2.3-3.1
			c0,0,0.8,0,0.8-0.8l0.8-0.8c0.8-0.8,0.8-2.3,2.3-3.1c0.8-0.8,2.3-1.5,3.1-2.3c0.8-0.8,2.3-3.1,4.7-3.9c0.8-0.8,1.5-0.8,3.1-1.5
			c0.8,0,0.8-0.8,0.8-0.8l0.8-0.8c1.5-1.5,3.9-3.1,6.2-4.7l0.8-0.8l0.8-0.8c2.3-0.8,4.7-0.8,5.5-0.8h0.8c0.8-0.8,3.1-0.8,4.7-2.3
			c0.8-0.8,1.5-0.8,2.3-1.5c0.8-0.8,2.3-2.3,4.7-2.3c0.8,0,0.8-0.8,1.5-0.8c1.5-0.8,3.1-2.3,4.7-3.1l0.8-0.8v-0.8l3.1-0.8l0,0h0.8
			l0.8-0.8c0.8,0,0.8-0.8,0.8-0.8l3.6-1.5l0,0l0.8-0.8l0,0l4.7-1.5c0.8-0.8,0.8-0.8,2.3-0.8l2.3-0.8c0,0,0.8,0,0.8-0.8l2.3-0.8
			c0.8-0.8,1.5-0.8,3.1-0.8c0.8,0,0.8-0.8,1.5-0.8c0.8-0.8,2.3-0.8,3.1-1.5c0.8,0,0.8-0.8,1.5-0.8c1.5-0.8,3.9-0.8,4.7-0.8
			c0.8,0,1.5,0,3.1,0c2.3,0,6.2-0.8,10.1-0.8c0.8,0,1.5,0,3.1,0c3.1,0,6.2,0.8,8.6,1.5c0.8,0,2.3,0.8,3.9,0.8c0.8,0,0.8,0,2.3,0.8
			c0,0,1.5,0,2.3,0s0.8,0,1.5,0l3.9,0.8l0,0c0.8,0,0.8,0,1.5,0.8c0.8,0,0.8,0.8,3.1,0.8c0.8,0,0.8,0,0.8,0c0.8,0,1.5,0,2.3,0.8
			c0.8,0,0.8,0,2.3,0c1.5,0,3.1,0.8,3.9,0.8c1.5,0,3.1,0.8,4.7,0.8c1.5,0.8,3.1,0.8,4.7,0.8c0.8,0,3.1,0,3.9,0c0.8,0,4.7,0,6.2,0
			c2.3,0,4.7,0,7.8,0.8l1.5,0.8h2.3l0.8,0.8h0.8l1.5,2.3c0,0,0,0,0.8,0.8c1.5,0.8,3.1,0.8,4.7,2.3c0.8,0.8,1.5,0.8,3.1,1.5
			c0.8,0.8,0.8,0.8,1.5,0.8c1.5,1.5,4.7,3.1,6.2,6.2c0.8,0.8,2.3,3.1,3.9,4.7l0.8,0.8c0.8,0.8,0.8,0.8,0.8,0.8
			c0.8,0.8,1.5,1.5,2.3,2.3c0.8,0.8,0.8,0.8,0.8,1.5l0.8,0.8c0.8,0.8,0.8,1.5,1.5,3.1v0.8c0.8,0.8,1.5,2.3,1.5,3.1s0.8,0.8,0.8,0.8
			c0.8,0.8,0.8,0.8,1.5,1.5c0,0.8,0.8,0.8,0.8,0.8l0.8,0.8l0.8,0.8c0.8,0.8,0.8,0.8,0.8,0.8c0.8,0.8,0.8,2.3,1.5,3.1l0,0
			c0.8,0.8,1.5,2.3,1.5,3.1c0,0,0,0,0,0.8l0.8,0.8l0.8,0.8c0.8,0.8,0.8,1.5,0.8,2.3c0.8,0.8,0.8,0.8,1.5,2.3
			c0.8,0.8,0.8,2.3,0.8,3.1c0.8,0.8,0.8,3.1,1.5,3.9c0.8,0.8,0.8,1.5,1.5,3.1c0,0.8,0.8,0.8,0.8,0.8c0.8,0.8,0.8,1.5,0.8,3.1
			c0,0.8,0.8,0.8,0.8,1.5c0.8,0.8,0.8,1.5,1.5,3.1c0.8,1.5,0.8,3.1,0.8,5.5l0.8,1.5c0,0.8,0.8,1.5,0.8,3.1c0,0.8,0,1.5,0,2.3v0.8
			c0,0.8,0.8,1.5,0.8,3.1c0,0.8,0.8,2.3,0.8,3.1c0.8,4.7,0.8,10.9,1.5,16.4l0.8,3.1c0,0.8,0.8,1.5,0.8,3.1
			C331.9,186,331.9,192.2,331.1,197.6z"/>
		<path fill="#9BCC32" d="M129.9,154.8c0,0.8,0,0.8,0.8,1.5c0,0.8,0.8,2.3,0.8,3.1c0.8,0.8,0.8,1.5,1.5,2.3c1.5,0.8,3.1,1.5,5.5,2.3
			l0,0c0.8,0.8,3.1,1.5,4.7,2.3c0.8,0,0.8,0,1.5,0c0.8,0,0.8,0,2.3,0c0.8,0,0.8,0,1.5-0.8c0.8,0,2.3-0.8,3.9-0.8
			c0.8-0.8,0.8-0.8,1.5-0.8c0.8-0.8,1.5-0.8,1.5-1.5l0.8-0.8l0.8-0.8c0.8,0,0.8-0.8,1.5-0.8l0.8-0.8l0.8-0.8
			c0.8-0.8,0.8-1.5,0.8-2.3c0.8-3.1,0.8-6.2-0.8-8.6v-0.8c0-0.8-0.8-0.8-0.8-1.5v-0.8c0-0.8,0-0.8-0.8-0.8c-0.8-0.8-0.8-0.8-0.8-1.5
			c0-0.8-0.8-0.8-0.8-1.5c-0.8-0.8-0.8-0.8-0.8-0.8c-0.8-0.8-0.8-0.8-1.5-0.8c0,0,0,0-0.8,0c-0.8,0-0.8-0.8-1.5-0.8l0,0
			c-0.8-0.8-0.8-0.8-2.3-0.8l-0.8-0.8c-0.8-0.8-2.3-0.8-7-0.8c-1.5,0-3.1,0-4.7,0.8c-1.5,0-3.1,0.8-3.1,1.5h-0.8
			c-0.8,0.8-0.8,0.8-1.5,0.8l-0.8,0.8c-0.8,0-0.8,0.8-0.8,0.8c-0.8,0.8-2.3,3.1-3.1,4.7c-0.8,3.1,0,8.6,0,9.4
			C128.4,154,129.1,154.8,129.9,154.8z"/>
		<path fill="#9BCC32" d="M231.3,160.2c0,0.8,0.8,1.5,1.5,2.3c3.1,1.5,5.5,3.1,8.6,4.7c1.5,0.8,3.1,0.8,4.7,0.8c0.8,0,1.5,0,3.1,0
			c1.5,0,1.5,0,3.1-0.8c0.8,0,0.8,0,0.8,0c1.5-0.8,3.1-1.5,4.7-3.1l0.8-0.8c0.8-0.8,2.3-1.5,3.1-2.3s0.8-1.5,0.8-2.3
			c0.8-0.8,0.8-0.8,0.8-0.8c0.8-0.8,0.8-1.5,0.8-1.5c0-1.5,0-3.1,0-4.7c0-0.8,0-1.5,0-3.1c0-0.8,0-1.5-0.8-2.3s-1.5-2.3-2.3-3.9
			c-0.8-0.8-0.8-0.8-0.8-1.5c-0.8-0.8-0.8-0.8-1.5-1.5l0,0c-0.8-0.8-0.8-0.8-1.5-0.8c-0.8,0-0.8-0.8-0.8-0.8l-0.8-0.8
			c0,0-0.8,0-0.8-0.8h-0.8c-0.8-0.8-0.8-0.8-1.5-0.8c-0.8,0-0.8-0.8-0.8-0.8c-2.3-0.8-4.7-0.8-5.5-0.8h-0.8c0,0-1.5,0-3.1,0.8
			c-0.8,0-0.8,0-0.8,0h-0.8c-0.8,0-0.8,0.8-1.5,0.8c-0.8,0-0.8,0-0.8,0.8c0,0-0.8,0-0.8,0.8c0,0-0.8,0-0.8,0.8
			c-0.8,0.8-0.8,0.8-0.8,1.5c0,0,0,0.8-0.8,0.8l-0.8,0.8c-0.8,0.8-1.5,0.8-2.3,3.1v0.8c0,0.8-0.8,0.8-0.8,1.5c0,0.8-0.8,0.8-0.8,0.8
			c-0.8,3.1,0,7,0.8,8.6C230.5,155.5,230.5,157.9,231.3,160.2z"/>
		<path fill="#9BCC32" d="M272.6,231.9c-0.8-0.8-0.8-0.8-1.5-1.5c-0.8-0.8-0.8-0.8-1.5-0.8c-0.8-0.8-0.8-1.5-1.5-2.3
			c-1.5-0.8-3.1-0.8-4.7-0.8c-0.8,0-0.8,0-0.8,0h-0.8h-1.5c-1.5,0-3.1,0-3.1,0c-0.8,0-0.8,0-0.8,0c-3.1,0.8-4.7,3.1-5.5,4.7
			c0,0.8-0.8,0.8-0.8,0.8c-0.8,0.8-0.8,0.8-0.8,0.8v0.8c-0.8,0.8-0.8,0.8-0.8,1.5l0,0c-0.8,0.8-0.8,0.8-0.8,1.5
			c-0.8,0.8-0.8,0.8-0.8,2.3c-0.8,1.5-0.8,3.1-0.8,4.7l0,0c-0.8,0.8-0.8,0.8-0.8,1.5c0,0,0,0.8-0.8,0.8c-0.8,0.8-0.8,1.5-0.8,2.3
			c-0.8,0.8-1.5,3.1-1.5,3.1c-0.8,0.8-0.8,0.8-0.8,2.3l0,0c-0.8,0.8-0.8,0.8-0.8,0.8c-0.8,0.8-0.8,0.8-0.8,1.5
			c-0.8,0.8-0.8,0.8-0.8,0.8l-0.8,0.8c-0.8,0.8-0.8,1.5-2.3,3.1c-0.8,0.8-0.8,0.8-0.8,1.5c-0.8,0.8-3.1,2.3-3.9,3.1
			c-0.8,0.8-0.8,0.8-1.5,1.5c0,0,0,0-0.8,0.8H228c0,0-0.8,0-0.8,0.8c-0.8,0-1.5,0.8-2.3,0.8s-0.8,0.8-0.8,0.8
			c-0.8,0.8-0.8,0.8-0.8,0.8l0,0c-0.8,0-0.8,0.8-0.8,0.8s-0.8,0-0.8,0.8c-0.8,0-0.8,0-0.8,0.8c-0.8,0-0.8,0.8-0.8,0.8
			c-0.8,0-0.8,0.8-1.5,0.8c-0.8,0-0.8,0-0.8,0.8c0,0,0,0-0.8,0c0,0,0,0-0.8,0c0,0,0,0-0.8,0l0,0c0,0,0,0-0.8,0l0,0h-0.5l0,0
			c0,0,0,0-0.8,0h-0.8l0,0l0,0l0,0l0,0l0,0c0,0,0,0-0.8,0c0,0,0,0-0.8,0c0,0,0,0-0.8,0l0,0l-1.5,0.8c-1.5,0.8-3.1,1.5-4.7,1.5
			c-2.3,0.8-4.7,0.8-7.8,0.8c-0.8,0-0.8-0.8-1.5-0.8h-0.8h-0.7c-1.5,0-3.9-0.8-5.5-0.8h-0.8l-0.8-0.8c-0.8-0.8-0.8-0.8-2.3-0.8
			c-1.5-0.8-2.3-0.8-3.1-0.8c-0.8-0.8-0.8-0.8-0.8-0.8s-0.8,0-0.8-0.8c0,0-0.8,0-0.8-0.8c0,0-0.8,0-0.8-0.8l-0.8-0.8
			c-0.8-0.8-0.8-0.8-0.8-0.8c-0.8-0.8-0.8-0.8-1.5-0.8h-0.8c0,0,0,0-0.8,0c-0.8-0.8-0.8-0.8-1.5-0.8l0,0c-0.8-0.8-0.8-0.8-2.3-0.8
			c0-0.8-0.8-0.8-0.8-0.8c-0.8,0-0.8-0.8-0.8-0.8l-0.8-0.8l0,0c-0.8-0.8-0.8-0.8-2.3-0.8c-0.8-0.8-0.8-0.8-0.8-1.5
			c-0.8-0.8-0.8-0.8-0.8-1.5c-0.8-0.8-1.5-1.5-2.3-3.1c0-0.8,0-0.8-0.8-0.8c0-0.8-0.8-0.8-0.8-0.8c0-0.8,0-0.8-0.8-0.8
			c0-0.8-0.8-0.8-0.8-0.8c0-0.8-0.8-0.8-0.8-0.8s0,0,0-0.8s-0.8-0.8-0.8-0.8v-0.8c0-0.8,0-0.8-0.8-0.8c0-0.8-0.8-0.8-0.8-0.8v-0.8
			c0-0.8-0.8-0.8-0.8-0.8v-0.8v-0.8c0-0.8-0.8-0.8-0.8-0.8s0-0.8-0.8-0.8c0-0.8-0.8-0.8-0.8-0.8s0-0.8-0.8-0.8
			c0-0.8-0.8-0.8-0.8-0.8l0,0c-0.8-0.8-0.8-1.5-1.5-1.5c0-0.8-0.8-0.8-0.8-0.8c-0.8-0.8-0.8-1.5-1.5-2.3l-0.8-0.8
			c-0.8-0.8-1.5-2.3-3.1-3.1l-0.8-0.8c-0.8-0.8-0.8-0.8-0.8-0.8c-2.3-0.8-4.7-0.8-7-0.8c-1.5,0-3.1,0-4.7,0.8c-3.1,0.8-6.2,3.9-7,7
			c0,0.8-0.8,0.8-0.8,1.5c0,0.8-0.8,0.8-0.8,0.8c0,0.8,0,1.5,0,3.1c0,0.8-0.8,0.8-0.8,2.3c0,0.8,0,3.1,0.8,3.9
			c0.8,0.8,0.8,3.1,1.5,3.9l0.8,0.8l0,0c0,0.8,0.8,0.8,0.8,0.8c0,0.8,0.8,0.8,0.8,0.8v0.8c0,0.8,0.8,0.8,0.8,1.5
			c0,0.8,0.8,0.8,0.8,0.8s0,0.8,0.8,0.8c0,0.8,0.8,0.8,0.8,0.8s0,0,0,0.8c0,0,0,0,0,0.8s0,0.8,0.8,0.8c0,0.8,0.8,0.8,0.8,0.8
			c0,0.8,0.8,0.8,0.8,1.5c0,0,0,0,0,0.8v0.8c0,0.8,0.8,0.8,0.8,0.8v0.8c0,0,0,0.8,0.8,0.8c0,0.8,0.8,0.8,0.8,0.8
			c0,0.8,0,0.8,0.8,0.8c0,0.8,0.8,0.8,0.8,0.8s0,0.8,0.8,0.8c0,0,0,0.8,0.8,0.8c0.8,0.8,0.8,0.8,0.8,0.8l0.8,0.8
			c0.8,0.8,0.8,0.8,0.8,1.5c0,0,0,0.8,0.8,0.8c0,0.8,0.8,0.8,0.8,1.5s0,0.8,0,0.8c0,0.8,0.8,0.8,0.8,1.5c0.8,0.8,0.8,0.8,0.8,1.5
			c0,0.8,0.8,0.8,0.8,1.5c0.8,0.8,0.8,0.8,1.5,0.8c0,0.8,0.8,0.8,0.8,0.8c0.8,0.8,0.8,0.8,1.5,1.5c0.8,0.8,0.8,0.8,0.8,0.8
			s0.8,0,0.8,0.8c0.8,0.8,2.3,1.5,3.9,3.1l0.8,0.8l0.8,0.8l0.8,0.8l0.8,0.8l0.8,0.8c0.8,0.8,0.8,0.8,2.3,0.8c0,0,0,0,0.8,0l0.8,0.8
			c0.8,0.8,1.5,0.8,2.3,0.8c0.8,0.8,1.5,0.8,1.5,0.8c0.8,0.8,0.8,0.8,1.5,0.8l0.8,0.8c0.8,0,0.8,0.8,0.8,0.8
			c0.8,0.8,0.8,0.8,1.5,0.8l0.8,0.8c0.8,0,0.8,0.8,0.8,0.8h0.8l0.8,0.8c0.8,0.8,1.5,0.8,3.1,0.8l0.8,0.8c0.8,0,0.8,0.8,1.5,0.8
			c0.8,0,0.8,0,2.3,0.8c0.8,0,0.8,0,0.8,0c0.8,0.8,1.5,0.8,2.3,0.8c1.5,0.8,3.1,0.8,4.7,0.8c0.8,0,2.3,0.8,3.1,0.8s0.8,0,2.3,0
			c0.8,0,2.3,0,3.1,0h1.5c0.8,0,3.1,0,3.9,0c2.3,0,3.1,0,4.7-0.8c0,0,0,0,0.8,0h0.8c2.3,0,3.9-0.8,4.7-0.8l1.5-0.8
			c0.8,0,2.3-0.8,3.1-0.8c0.8-0.8,2.3-0.8,3.1-0.8s0.8,0,0.8-0.8c0.8,0,0.8,0,0.8-0.8c1.5-0.8,3.1-1.5,4.7-2.3
			c0.8,0,0.8-0.8,1.5-0.8c0.8,0,0.8,0,1.5-0.8c0.8,0,0.8-0.8,0.8-0.8l0,0c0.8,0,0.8-0.8,0.8-0.8c0.8,0,0.8,0,0.8-0.8
			c0.8,0,0.8-0.8,0.8-0.8l0,0c0.8,0,0.8-0.8,0.8-0.8c0.8,0,0.8,0,1.5-0.8c0.8,0,0.8-0.8,0.8-0.8l0.8-0.8c0.8-0.8,0.8-0.8,0.8-0.8
			c0.8,0,0.8-0.8,0.8-0.8l0.8-0.8l0,0c0.8,0,0.8-0.8,0.8-0.8l0,0c0.8-0.8,0.8-0.8,1.5-0.8c0.8,0,0.8-0.8,0.8-0.8l0.8-0.8
			c0.8-0.8,3.1-1.5,3.9-3.1c0.8-0.8,1.5-1.5,2.3-2.3s0.8-1.5,2.3-2.3c0.8,0,0.8-0.8,1.5-0.8c0.8-0.8,0.8-0.8,1.5-1.5l0.8-0.8
			l0.8-0.8l0.8-0.8c0.8-0.8,2.3-1.5,3.1-3.1l0.8-0.8c0,0,0-0.8,0.8-0.8c0-0.8,0.8-0.8,0.8-0.8v-0.8c0.8,0,0.8-0.8,0.8-0.8
			c0.8-0.8,0.8-0.8,0.8-0.8l0,0c0.8-0.8,0.8-0.8,0.8-2.3l0.8-0.8l0.8-0.8l0.8-0.8c0.8-0.8,0.8-0.8,0.8-1.5l0,0
			c0.8,0,0.8-0.8,0.8-1.5c0.8-0.8,0.8-0.8,0.8-0.8v-0.8l0.8-0.8c0.8-0.8,0.8-0.8,0.8-0.8l0.8-0.8l0.8-0.8c0.8-0.8,0.8-1.5,0.8-3.1
			v-0.8c0.8-0.8,0.8-1.5,0.8-1.5c0.8-0.8,0.8-0.8,0.8-3.1c1.5-3.9,3.1-8.6,3.1-16.4c0-0.8,0-0.8-0.8-1.5
			C274.9,234.3,274.2,232.7,272.6,231.9z"/>
	</g>
</g>
</svg>
