<?xml version="1.0" encoding="utf-8"?>
<!-- Generator: Adobe Illustrator 18.1.1, SVG Export Plug-In . SVG Version: 6.00 Build 0)  -->
<svg version="1.1" id="Layer_1" xmlns="http://www.w3.org/2000/svg" xmlns:xlink="http://www.w3.org/1999/xlink" x="0px" y="0px"
	 viewBox="0 0 400 400" enable-background="new 0 0 400 400" xml:space="preserve">
<g>
	<path fill="#333333" d="M328,191.4c0-2.5,0-4.3,0-6.8l0,0l-0.6-2.5c0-0.6-0.6-2.5-0.6-3.7v-1.9c0-1.9,0-3.7-0.6-5.6
		c0-1.9,0-3.7-0.6-4.9c0-0.6,0-0.6-0.6-0.6h-0.6l-0.6-2.5c-0.6-0.6-0.6-1.9-0.6-2.5l0,0l-0.6-2.5c-0.6-1.2-0.6-2.5-0.6-3.7
		c0-0.6,0-1.2,0-1.9c0-0.6,0-0.6-0.6-1.2v-0.6c0-0.6,0-0.6-0.6-1.2c-0.6-0.6-0.6-0.6-0.6-1.9c-0.6,0-0.6-0.6-0.6-1.9
		c-0.6-0.6-0.6-0.6-0.6-1.9c0-0.6-0.6-0.6-0.6-1.2c-0.6-0.6-0.6-1.2-1.2-2.5c-0.6-1.2-1.2-3.1-1.9-3.7c0-0.6-0.6-0.6-0.6-1.2
		c0-0.6-0.6-0.6-0.6-1.2c-0.6-0.6-0.6-0.6-0.6-1.2l0,0l-0.6-2.5c0-0.6-0.6-0.6-0.6-1.2c-0.6-0.6-1.2-1.2-1.2-2.5
		c-0.6,0-0.6-0.6-0.6-0.6h-0.6l-0.6-2.5c-0.6-0.6-0.6-1.2-0.6-1.9c-0.6-0.6-0.6-0.6-0.6-1.2c-0.6-0.6-0.6-1.2-0.6-2.5
		c-0.6-0.6-0.6-0.6-0.6-1.2l-0.6-0.6l-4.3-6.8c-1.9-2.5-3.1-4.9-4.3-7.4h-0.6l-1.2-2.5c-0.6-0.6-0.6-1.9-0.6-2.5l-0.6-0.6
		c-0.6-0.6-1.2-1.2-1.9-2.5c-0.6-0.6-0.6-0.6-1.2-1.2c-0.6-0.6-0.6-0.6-0.6-1.2c-0.6-0.6-0.6-0.6-1.2-0.6l-0.6-0.6
		c-1.2-1.2-2.5-2.5-3.7-3.7c-0.6-0.6-0.6-0.6-0.6-0.6c-0.6-0.6-0.6-0.6-1.2-1.2c-0.6-0.6-0.6-0.6-1.2-1.2c-0.6-0.6-0.6-0.6-0.6-0.6
		v-1.2c-0.6-0.6-0.6-0.6-0.6-0.6s-0.6,0-0.6-0.6c-0.6-0.6-1.2-0.6-2.5-1.2c0,0-0.6,0-0.6-0.6h-0.6c-1.2-0.6-2.5-0.6-3.1-1.2
		c-0.6,0-0.6-0.6-1.2-0.6c-0.6-0.6-1.2-0.6-2.5-0.6c-0.6-0.6-0.6-0.6-0.6-0.6c-0.6,0-1.2-0.6-1.9-0.6c-0.6,0-0.6-0.6-1.9-0.6
		c-0.6,0-0.6-0.6-1.9-0.6c-0.6,0-0.6-0.6-1.9-0.6c-0.6,0-0.6-0.6-1.9-0.6c-0.6,0-0.6-0.6-1.9-0.6c-0.6,0-0.6-0.6-1.9-0.6
		c-0.6,0-0.6-0.6-1.9-0.6c-0.6,0-0.6-0.6-1.2-0.6h-0.6h-0.6c-2.5-0.6-4.3-0.6-6.8-0.6c-1.2,0-3.1,0-4.9,0c-2.5,0-4.9-0.6-6.8-0.6
		c-1.9,0-3.7-0.6-5.6-0.6c-0.6,0-1.2-0.6-2.5-0.6h-0.6c-0.6,0-1.9-0.6-2.5-0.6h-0.6c-1.9,0-3.1-0.6-4.3-0.6c-0.6,0-0.6,0-0.6,0
		c-0.6,0-1.2,0-2.5-0.6h-0.6c-0.6,0-1.9-0.6-2.5-0.6c-1.9-0.6-3.7-0.6-5.6-0.6c-0.6,0-1.9,0-3.1,0c-0.6,0-1.2,0-1.9-0.6l-3.7,0.6
		c-3.7,0.6-6.8,0.6-9.3,0.6h-0.6c-1.2,0-2.5,0.6-3.1,0.6c-1.9,0-3.7,0.6-4.9,0.6c-0.6,0.6-2.5,0.6-3.1,1.2c-0.6,0.6-1.9,0.6-2.5,1.2
		c-0.6,0.6-1.2,0.6-2.5,0.6c-0.6,0-0.6,0.6-1.2,0.6c0,0-0.6,0-0.6,0.6l0,0h-2.5c-0.6,0.6-1.2,0.6-2.5,0.6c0,0,0,0-0.6,0
		c-0.6,0.6-0.6,0.6-1.9,1.2c-0.6,0.6-1.2,0.6-1.9,0.6c-0.6,0.6-0.6,0.6-0.6,0.6c-0.6,0.6-1.2,0.6-1.9,0.6c-0.6,0.6-0.6,0.6-1.2,0.6
		s-0.6,0.6-0.6,0.6c-0.6,0.6-0.6,0.6-0.6,0.6c-0.6,0.6-0.6,0.6-1.9,0.6c-0.6,0-0.6,0.6-0.6,0.6l-0.6,0.6c-0.6,0.6-0.6,0.6-0.6,0.6
		l-0.6,0.6c-0.6,0.6-1.2,0.6-1.9,1.2c-0.6,0-0.6,0.6-0.6,0.6c-0.6,0.6-0.6,0.6-1.2,1.2c-0.6,0.6-0.6,0.6-1.2,0.6
		c-1.2,0.6-2.5,2.5-3.1,3.1c-2.5,2.5-4.3,4.3-6.8,6.2c-1.9,0.6-3.7,1.9-5.6,2.5c-1.2,0.6-2.5,0.6-3.1,1.2c-0.6,0.6-0.6,0.6-0.6,0.6
		c-0.6,0.6-1.2,0.6-1.9,1.2c-0.6,0.6-1.2,1.2-1.9,1.9c-0.6,0.6-1.9,1.9-2.5,2.5c-0.6,0.6-1.9,1.9-2.5,2.5c-0.6,0.6-1.9,0.6-2.5,1.2
		c-0.6,0.6-0.6,0.6-0.6,0.6c-0.6,0.6-0.6,0.6-1.2,1.9c-0.6,0.6-1.2,0.6-1.9,1.2c-0.6,0.6-0.6,0.6-1.2,1.2c-0.6,0.6-0.6,0.6-1.2,1.2
		c-0.6,0.6-0.6,0.6-1.9,1.9c-0.6,0.6-0.6,0.6-1.2,1.2c-0.6,0-0.6,0.6-0.6,0.6c-0.6,0.6-0.6,1.9-1.2,2.5c-0.6,0.6-0.6,0.6-0.6,1.2
		c0,0,0,0,0,0.6c-0.6,1.2-1.2,2.5-1.9,3.1c-0.6,0.6-0.6,0.6-0.6,1.2c0,0.6-0.6,0.6-0.6,0.6c-0.6,0.6-0.6,1.2-0.6,1.9l-0.6,0.6
		c0,0.6-0.6,1.2-0.6,2.5c-0.6,0.6-1.2,1.2-1.9,2.5c0,0.6-0.6,0.6-0.6,0.6c0,0.6-0.6,0.6-0.6,0.6c-0.6,0.6-0.6,1.9-1.9,2.5
		c0,0.6-0.6,0.6-0.6,1.2c-0.6,0.6-0.6,0.6-1.2,1.2c-0.6,0.6-0.6,0.6-1.2,1.9c-0.6,0.6-0.6,0.6-0.6,0.6c-0.6,0.6-0.6,0.6-1.2,1.2
		c0,0.6-0.6,1.2-0.6,1.9c-0.6,0.6-0.6,0.6-0.6,1.2s-0.6,0.6-0.6,0.6c0,0.6-0.6,0.6-0.6,1.2c-0.6,0.6-0.6,0.6-1.2,1.2
		c0,0.6-0.6,0.6-0.6,0.6c0,0.6-0.6,1.2-0.6,1.9s-0.6,0.6-0.6,1.9l-0.6,1.2l-0.6-2.5c0,0-0.6,1.2-0.6,1.9c0,0.6-0.6,2.5-0.6,2.5v0.6
		c0,0.6-0.6,1.9-0.6,2.5c0,0-0.6,2.5-1.9,4.3c0,0.6,0,0.6,0,1.9c-0.6,3.7-2.5,7.4-3.1,11.1c-0.6,1.2-0.6,3.1-1.2,4.3
		c-2.5,8-3.7,16.7-3.7,27.2c0,0.6-0.6,1.9-0.6,2.5c-0.6,5.6-0.6,9.9,0,14.8H70l0.6,3.1c0,1.2,0.6,2.5,0.6,3.7l0,0l0.6,2.5
		c0,0.6,0,0.6,0,0.6l0.6,1.2c0.6,3.7,1.9,6.8,2.5,8.6c0.6,0.6,0.6,2.5,0.6,3.1v0.6c0,0.6,0.6,1.2,0.6,1.9l0,0l0.6,2.5
		c0.6,2.5,1.2,3.7,1.2,3.7c0,0.6,0.6,0.6,0.6,0.6c0.6,0.6,0.6,1.2,0.6,1.2s0.6,1.9,0.6,2.5l0,0l0.6,2.5c0.6,0.6,0.6,1.9,0.6,2.5
		c0.6,0.6,0.6,1.2,0.6,1.9c0.6,1.9,1.2,3.1,2.5,4.9l1.2,2.5c0,0.6,0.6,1.2,0.6,1.9c0.6,0.6,0.6,2.5,1.2,2.5c0.6,0.6,0.6,0.6,0.6,1.9
		c0.6,0.6,0.6,0.6,0.6,1.2c0.6,0.6,0.6,0.6,0.6,1.2c0.6,0.6,1.2,0.6,2.5,1.9c0.6,0.6,0.6,1.2,1.9,2.5c0,0.6,0.6,0.6,0.6,0.6
		c2.5,0.6,4.3,3.7,4.9,3.7c0,0,0-0.6-0.6-0.6L99,292l0,0c0.6,0.6,0.6,0.6,0.6,1.9c0.6,0.6,0.6,0.6,0.6,0.6c0.6,0,1.9,0.6,2.5,1.2
		c0.6,0.6,1.9,1.9,2.5,2.5l2.5,2.5c0.6,0.6,1.2,1.2,2.5,2.5c0.6,0.6,1.2,1.2,1.9,1.9c0.6,0.6,1.2,1.2,1.9,1.9l0.6,0.6
		c0.6,0.6,0.6,0.6,1.2,0.6c0,0,1.2,1.2,1.9,1.2c0.6,0.6,1.2,0.6,2.5,1.2h0.6l1.2,0.6c0.6,0.6,0.6,0.6,1.2,1.2
		c0.6,0.6,2.5,1.2,3.1,1.9l0.6,0.6c2.5,1.2,5.6,2.5,7.4,3.7c0.6,0.6,1.9,0.6,2.5,1.2h0.6l0.6,0.6c0.6,0,0.6,0.6,0.6,0.6h0.6h0.6
		c0.6,0,1.2,0.6,1.9,0.6h0.6h0.6c0.6,0.6,1.9,0.6,2.5,1.9l0,0c0.6,0.6,1.2,0.6,1.9,0.6c1.2,0.6,2.5,1.2,3.1,1.9h0.6
		c0.6,0,1.2,0.6,2.5,0.6l4.3,1.2l0,0c0.6,0,0.6,0,0.6,0.6c0.6,0,1.2,0.6,1.2,0.6c1.2,0,2.5,0.6,3.1,0.6c0.6,0,0.6,0,1.2,0.6
		c2.5,0.6,4.9,0.6,6.2,1.9h0.6c0.6,0,1.2,0,2.5,0.6h0.6h0.6c0.6,0,1.2,0.6,2.5,0.6c1.2,0,1.9,0.6,2.5,0.6c0.6,0.6,1.9,0.6,2.5,0.6
		c2.5,0.6,4.9,0.6,7.4,0.6c3.1,0,5.6,0.6,8,0.6h0.6c0.6,0,0.6,0,1.2,0s1.2,0,1.9,0c1.2,0,2.5,0,3.1,0.6h0.6c0.6,0,1.9,0,2.5,0
		c2.5,0,4.9-0.6,6.8-0.6c1.2,0,2.5-0.6,3.7-0.6c1.9-0.6,3.7-0.6,5.6-0.6c0,0,14.2-3.1,14.8-3.1l0,0l2.5-0.6c0.6,0,1.2-0.6,1.9-0.6
		c0.6,0,1.2-0.6,2.5-0.6c3.7-1.2,7.4-2.5,9.9-3.7v-0.6l2.5-0.6c0.6-0.6,1.2-0.6,1.9-0.6c0.6-0.6,0.6-0.6,1.9-1.2
		c0.6-0.6,1.9-0.6,2.5-0.6l0,0c0.6-0.6,1.9-1.2,3.7-1.9c0.6,0,0.6-0.6,1.9-0.6c0.6-0.6,1.2-0.6,1.9-0.6c0.6-0.6,0.6-0.6,1.9-0.6
		c0.6,0,1.2-0.6,1.9-0.6c0.6-0.6,2.5-1.9,3.7-3.1c0.6-0.6,1.2-1.2,2.5-1.9c0.6-0.6,1.9-1.9,3.1-2.5c1.2-0.6,3.1-2.5,3.7-3.1
		c0.6-1.9,2.5-2.5,3.7-3.7c0,0,0,0,0.6,0c0-0.6,0.6-1.2,0.6-1.9c0-0.6,0.6-0.6,0.6-1.2c0.6-0.6,0.6-0.6,1.2-1.2
		c0.6-0.6,1.9-2.5,3.1-3.7c0-0.6,0.6-1.2,0.6-1.9c0.6-0.6,0.6-0.6,1.2-1.2c0-0.6,0.6-0.6,0.6-0.6c0-0.6,0.6-0.6,0.6-1.9
		c0.6-0.6,0.6-0.6,1.2-1.2c0-0.6,0.6-0.6,0.6-0.6l0,0c0-0.6,0-0.6,0.6-0.6c0.6-0.6,0.6-0.6,0.6-1.2c0-0.6,0.6-1.2,0.6-1.9
		s0.6-0.6,0.6-1.2c0.6-0.6,0.6-0.6,0.6-1.2c0-0.6,0.6-0.6,0.6-0.6c0.6-0.6,0.6-0.6,0.6-1.2c0-0.6,0.6-0.6,0.6-0.6
		c0-0.6,0.6-0.6,0.6-1.2c0.6-0.6,0.6-0.6,0.6-1.2c0-0.6,0.6-0.6,0.6-1.2c0.6-0.6,0.6-0.6,0.6-0.6c0-0.6,0.6-0.6,0.6-1.2
		c0.6-0.6,0.6-0.6,0.6-1.2s0-0.6,0-0.6c0-0.6,0.6-1.2,1.2-2.5c0.6-1.2,0.6-2.5,1.2-3.7c0.6-1.9,0.6-3.7,1.9-5.6
		c1.2-3.7,2.5-4.9,2.5-5.6v-0.6c0-0.6,0.6-1.9,0.6-2.5c0-0.6,0.6-0.6,0.6-0.6c0-0.6,0.6-1.2,0.6-1.9c0-0.6,0-0.6,0-0.6
		c0-0.6,0.6-2.5,0.6-3.1c0.6-1.2,0.6-2.5,1.2-3.1V242c0-0.6,0.6-1.9,0.6-2.5c0-0.6,0.6-0.6,0.6-0.6s0.6-1.2,0.6-2.5
		c0.6-0.6,0.6-2.5,0.6-3.1c0-0.6,0.6-2.5,0.6-3.1c0-0.6,0.6-1.2,0.6-1.9c0.6-1.9,0.6-3.7,1.2-5.6c0.6-1.9,0.6-3.7,0.6-6.2
		c0.6-3.1,0.6-6.2,1.2-8.6c0-0.6,0-0.6,0-0.6c0-0.6,0-1.2,0.6-1.2l0.6-1.2c0-0.6,0-0.6,0.6-1.2c0-0.6,0-1.2,0-2.5
		c0.6-0.6,0.6-2.5,0.6-4.3v-1.2c0-1.2,0-2.5,0.6-3.7c0-0.6,0-1.2,0-1.9C328,193.2,328,192,328,191.4C328,193.8,328,192.6,328,191.4
		L328,191.4z M303.9,198.1c0,0.6-0.6,2.5-0.6,3.1c0,1.2-0.6,2.5-0.6,3.7c0,0.6,0,2.5,0,3.1c0,1.2,0,3.1-0.6,4.9l0,0
		c0,1.2,0.6,3.1-0.6,4.9c0,0.6-0.6,2.5-0.6,3.1v0.6c-0.6,0.6-0.6,2.5-0.6,3.7c0,1.2-0.6,2.5-0.6,3.7c0,2.5-0.6,3.7-0.6,6.2
		c-0.6,2.5-1.9,5.6-3.1,8.6l-0.6,2.5l-0.6,1.2c0,0.6-0.6,0.6-0.6,1.2c0,0.6-0.6,0.6-0.6,0.6v0.6c0,0.6-0.6,1.2-0.6,2.5l-0.6,0.6
		c0,0.6-0.6,1.2-0.6,2.5c0,0.6-0.6,0.6-0.6,1.2c0,0.6-0.6,0.6-0.6,0.6v0.6c0,0.6-0.6,1.2-0.6,2.5c0,0.6,0,0.6-0.6,0.6
		c-0.6,0.6-0.6,1.9-0.6,2.5l-0.6,0.6c0,0.6,0,1.2-0.6,2.5c-0.6,0.6-0.6,1.2-1.2,1.9c0,0.6-0.6,0.6-0.6,1.2c-0.6,0.6-1.2,1.9-1.9,3.1
		c-0.6,0.6-0.6,1.2-1.2,1.2c-0.6,0.6-3.1,4.9-3.1,4.9l-0.6,0.6c-0.6,0.6-0.6,1.9-1.9,2.5l-0.6,0.6c-0.6,0.6-0.6,0.6-0.6,1.2
		c-0.6,0.6-0.6,0.6-0.6,1.2c0,0.6-0.6,0.6-0.6,1.2l-1.2,2.5h-0.6c-0.6,0.6-0.6,0.6-1.2,0.6c-0.6,1.2-0.6,2.5-1.9,2.5
		c-1.2,1.2-3.1,2.5-4.9,4.3c-1.2,1.2-2.5,2.5-3.7,3.7c-0.6,0.6-0.6,1.9-2.5,2.5c-0.6,0.6-0.6,0.6-1.2,0.6c-0.6,0.6-0.6,0.6-1.2,1.2
		c0,1.9-0.6,1.9-1.2,1.9c-0.6,0.6-1.2,1.2-2.5,1.9l-1.2,0.6h-0.6l-0.6,0.6c-2.5,1.2-3.7,2.5-4.9,2.5c-0.6,0-0.6,0.6-0.6,0.6
		c-0.6,0.6-1.2,0.6-2.5,0.6c-0.6,0-1.2,0.6-1.2,0.6c-0.6,0.6-1.9,0.6-3.7,1.9v0.6l-1.2,0.6c-1.2,0.6-2.5,0.6-3.1,0.6l0,0
		c-0.6,0.6-0.6,0.6-1.2,0.6c0,0-1.9,0.6-2.5,0.6c-1.2,0.6-2.5,0.6-4.3,0.6c-0.6,0-2.5,0.6-3.1,0.6s-1.9,0.6-2.5,0.6
		c-1.2,0.6-2.5,0.6-3.7,0.6h-1.2c-1.9,0.6-3.7,0.6-6.2,0.6c-1.2,0-2.5,0-3.7,0c-3.7,0-8.6-0.6-12.3-0.6l-3.7-0.6
		c-2.5-0.6-4.3-0.6-6.8-0.6h-2.5c-2.5-0.6-5.6-0.6-8-1.9c-0.6,0-0.6-0.6-1.9-0.6c-0.6,0-0.6,0-1.2,0c-1.2,0-2.5-0.6-4.3-0.6
		c-0.6,0-0.6-0.6-1.9-0.6c-0.6,0-0.6-0.6-1.9-0.6c-1.2-0.6-3.1-0.6-6.8-2.5h-0.6h-0.6l-0.6-0.6c-0.6-0.6-1.2-0.6-1.9-1.2h-0.6
		c-1.2-0.6-2.5-0.6-3.7-1.2c-0.6,0-0.6-0.6-0.6-0.6h-1.2l-1.2-1.9c-0.6,0-0.6-0.6-1.2-0.6c-0.6-0.6-0.6-0.6-1.2-1.2l0,0l-0.6-0.6
		c-0.6,0-0.6-0.6-0.6-0.6c-0.6-0.6-1.9-0.6-2.5-0.6c-0.6-0.6-1.9-0.6-2.5-0.6c-0.6-0.6-1.9-0.6-2.5-0.6c-2.5-0.6-4.9-3.1-7.4-5.6
		c-0.6-0.6-1.2-1.2-1.9-1.9c-0.6-0.6-0.6-0.6-1.2-1.2c-0.6-0.6-0.6-0.6-1.2-0.6c-1.2-0.6-4.9-3.1-6.2-6.2c-0.6-0.6-1.2-0.6-1.9-1.9
		c-0.6-0.6-0.6-1.2-0.6-1.9c-0.6-0.6-0.6-0.6-0.6-1.2c-0.6-0.6-0.6-1.2-0.6-2.5l0,0c-0.6-0.6-0.6-0.6-1.2-1.2
		c-0.6-0.6-0.6-1.2-0.6-1.9c-0.6-1.2-1.2-2.5-1.9-3.7c0-0.6,0-0.6-0.6-0.6c-0.6-0.6-1.2-1.2-1.9-2.5v-0.6l0,0l-1.2-3.1
		c-0.6-0.6-0.6-1.9-0.6-2.5c0-0.6,0-0.6,0-0.6l0,0c-0.6-0.6-0.6-1.9-2.5-4.9c-0.6-0.6-0.6-1.2-0.6-1.9c-0.6-0.6-0.6-1.2-0.6-1.9l0,0
		c-0.6-0.6-1.2-1.2-1.2-2.5c0-0.6-0.6-1.2-0.6-1.9c0-0.6-0.6-0.6-0.6-1.2c-0.6-0.6-0.6-2.5-0.6-3.1l0,0c-0.6-0.6-0.6-1.2-1.2-2.5
		c-0.6-0.6-0.6-1.2,0-2.5l0,0c-0.6-0.6-0.6-1.9-0.6-2.5c-0.6-1.2-0.6-2.5-0.6-3.7v-0.6c-0.6-0.6-0.6-1.2-0.6-2.5v-1.2
		c-0.6-5.6-0.6-13,0-19.1c0-0.6,0.6-1.2,0.6-1.9c0-0.6,0.6-1.9,0.6-2.5c0.6-1.2,0.6-2.5,0.6-3.1c0-1.2,0.6-3.7,0.6-5.6
		c0.6-1.2,0.6-2.5,0.6-3.7c0.6-0.6,0.6-1.9,0.6-2.5c0-0.6,0-0.6,0-1.2c0-1.2,0-2.5,0.6-4.3l0.6-0.6c0-1.9,0-3.7,0.6-5.6
		c0-0.6,0.6-0.6,0.6-1.2c0-0.6,0-1.2,0.6-1.9c0-1.2,0.6-3.1,0.6-4.9l0.6-2.5h0.6c0-0.6,0.6-0.6,0.6-1.2c0.6-0.6,0.6-1.2,1.2-1.2
		c0-0.6,0.6-0.6,0.6-1.2c0.6-0.6,0.6-0.6,0.6-1.2c0-0.6,0.6-1.2,0.6-2.5c0.6-0.6,0.6-0.6,0.6-1.2c0-0.6,0.6-0.6,0.6-1.9
		c0-1.2,0.6-1.2,1.9-1.9c0-0.6,0.6-0.6,0.6-1.2c0.6-0.6,0.6-0.6,0.6-0.6c0-0.6,0.6-0.6,0.6-1.9c0.6-0.6,0.6-1.2,1.9-1.9
		c0-0.6,0.6-1.2,0.6-2.5c0-0.6,0.6-0.6,0.6-0.6c0.6-1.2,0.6-2.5,1.9-2.5l0,0c0-0.6,0.6-0.6,0.6-1.2c0.6-0.6,0.6-1.2,1.2-1.2
		c0.6-1.2,0.6-2.5,1.9-2.5l0,0c0-0.6,0.6-0.6,0.6-0.6c0.6-0.6,0.6-0.6,0.6-0.6c0-0.6,0.6-1.2,0.6-1.9c0.6-0.6,0.6-1.2,1.9-1.2
		c0-0.6,0.6-0.6,0.6-1.2c0.6-0.6,0.6-0.6,0.6-0.6c0-0.6,0.6-1.2,0.6-1.9c0.6-0.6,1.2-1.9,1.9-2.5c0,0,0.6,0,0.6-0.6l0.6-0.6
		c0.6-0.6,0.6-1.9,1.9-2.5c0.6-0.6,1.9-1.2,2.5-1.9s1.9-2.5,3.7-3.1c0.6-0.6,1.2-0.6,2.5-1.2c0.6,0,0.6-0.6,0.6-0.6l0.6-0.6
		c1.2-1.2,3.1-2.5,4.9-3.7l0.6-0.6l0.6-0.6c1.9-0.6,3.7-0.6,4.3-0.6h0.6c0.6-0.6,2.5-0.6,3.7-1.9c0.6-0.6,1.2-0.6,1.9-1.2
		c0.6-0.6,1.9-1.9,3.7-1.9c0.6,0,0.6-0.6,1.2-0.6c1.2-0.6,2.5-1.9,3.7-2.5l0.6-0.6v-0.6l2.5-0.6l0,0h0.6l0.6-0.6
		c0.6,0,0.6-0.6,0.6-0.6l3.1-1.2l0,0l0.6-0.6l0,0l3.7-1.2c0.6-0.6,0.6-0.6,1.9-0.6l1.9-0.6c0,0,0.6,0,0.6-0.6l1.9-0.6
		c0.6-0.6,1.2-0.6,2.5-0.6c0.6,0,0.6-0.6,1.2-0.6c0.6-0.6,1.9-0.6,2.5-1.2c0.6,0,0.6-0.6,1.2-0.6c1.2-0.6,3.1-0.6,3.7-0.6
		c0.6,0,1.2,0,2.5,0c1.9,0,4.9-0.6,8-0.6c0.6,0,1.2,0,2.5,0c2.5,0,4.9,0.6,6.8,1.2c0.6,0,1.9,0.6,3.1,0.6c0.6,0,0.6,0,1.9,0.6
		c0,0,1.2,0,1.9,0c0.6,0,0.6,0,1.2,0l3.1,0.6l0,0c0.6,0,0.6,0,1.2,0.6c0.6,0,0.6,0.6,2.5,0.6c0.6,0,0.6,0,0.6,0c0.6,0,1.2,0,1.9,0.6
		c0.6,0,0.6,0,1.9,0c1.2,0,2.5,0.6,3.1,0.6c1.2,0,2.5,0.6,3.7,0.6c1.2,0,2.5,0.6,3.7,0.6c0.6,0,2.5,0,3.1,0c0.6,0,3.7,0,4.9,0
		c1.9,0,3.7,0,6.2,0.6l1.2,0.6h1.9l0.6,0.6h0.6l1.2,1.9c0,0,0,0,0.6,0.6c1.2,0.6,2.5,0.6,3.7,1.9c0.6,0.6,1.2,0.6,2.5,1.2
		c0.6,0.6,0.6,0.6,1.2,0.6c1.2,1.2,3.7,2.5,4.9,4.9c0.6,0.6,1.9,2.5,3.1,3.7l0.6,0.6c0.6,0.6,0.6,0.6,0.6,0.6
		c0.6,0.6,1.2,1.2,1.9,1.9c0.6,0.6,0.6,0.6,0.6,1.2l0.6,0.6c0.6,0.6,0.6,1.2,1.2,2.5v0.6c0.6,0.6,1.2,1.9,1.2,2.5
		c0,0.6,0.6,0.6,0.6,0.6c0.6,0.6,0.6,0.6,1.2,1.2c0,0.6,0.6,0.6,0.6,0.6l0.6,0.6c0,0.6,0.6,0.6,0.6,0.6c0.6,0.6,0.6,0.6,0.6,0.6
		c0.6,0.6,0.6,1.9,1.2,2.5l0,0c0.6,0.6,1.2,1.9,1.2,2.5c0,0,0,0,0,0.6l0.6,0.6l0.6,0.6c0.6,0.6,0.6,1.2,0.6,1.9
		c0.6,0.6,0.6,0.6,1.2,1.9c0.6,0.6,0.6,1.9,0.6,2.5c0.6,0.6,0.6,2.5,1.2,3.1c0.6,0.6,0.6,1.2,1.2,2.5c0,0.6,0.6,0.6,0.6,0.6
		c0.6,0.6,0.6,1.2,0.6,2.5c0,0.6,0.6,0.6,0.6,1.2c0.6,0.6,0.6,1.2,1.2,2.5c0.6,1.2,0.6,2.5,0.6,4.3l0.6,1.2c0,0.6,0.6,1.2,0.6,2.5
		c0,0.6,0,1.2,0,1.9v0.6c0,0.6,0.6,1.2,0.6,2.5c0,1.2,0.6,1.9,0.6,2.5c0.6,3.7,0.6,8.6,1.2,13l0.6,2.5c0,0.6,0.6,1.2,0.6,2.5
		C304.6,188.9,304.6,194.4,303.9,198.1z"/>
	<path fill="#333333" d="M144.7,164.8c0,0.6,0,0.6,0.6,1.2c0,0.6,0.6,1.9,0.6,2.5c0.6,0.6,0.6,1.2,1.2,1.9c1.2,0.6,2.5,1.2,4.3,1.9
		l0,0c0.6,0.6,2.5,1.2,3.7,1.9c0.6,0,0.6,0,1.2,0c0.6,0,0.6,0,1.9,0c0.6,0,0.6,0,1.2-0.6c0.6,0,1.9-0.6,3.1-0.6
		c0.6-0.6,0.6-0.6,1.2-0.6c0.6-0.6,1.2-0.6,1.2-1.2l0.6-0.6l0.6-0.6c0.6,0,0.6-0.6,1.2-0.6l0.6-0.6l0.6-0.6c0.6-0.6,0.6-1.2,0.6-1.9
		c0.6-2.5,0.6-4.9-0.6-6.8v-0.6c0-0.6-0.6-0.6-0.6-1.2v-0.6c0-0.6,0-0.6-0.6-0.6c-0.6-0.6-0.6-0.6-0.6-1.2c0-0.6-0.6-0.6-0.6-1.2
		c-0.6-0.6-0.6-0.6-0.6-0.6c-0.6-0.6-0.6-0.6-1.2-0.6c0,0,0,0-0.6,0s-0.6-0.6-1.2-0.6l0,0c-0.6-0.6-0.6-0.6-1.9-0.6l-0.6-0.6
		c-0.6-0.6-1.9-0.6-5.6-0.6c-1.2,0-2.5,0-3.7,0.6c-1.2,0-2.5,0.6-2.5,1.2h-0.6c-0.6,0.6-0.6,0.6-1.2,0.6l-0.6,0.6
		c-0.6,0-0.6,0.6-0.6,0.6c-0.6,0.6-1.9,2.5-2.5,3.7c-0.6,2.5,0,6.8,0,7.4C143.4,163.6,144.1,164.2,144.7,164.8z"/>
	<path fill="#333333" d="M224.9,168.5c0,0.6,0.6,1.2,1.2,1.9c2.5,1.2,4.3,2.5,6.8,3.7c1.2,0.6,2.5,0.6,3.7,0.6c0.6,0,1.2,0,2.5,0
		c1.2,0,1.2,0,2.5-0.6c0.6,0,0.6,0,0.6,0c1.2-0.6,2.5-1.2,3.7-2.5l0.6-0.6c0.6-0.6,1.9-1.2,2.5-1.9c0.6-0.6,0.6-1.2,0.6-1.9
		c0.6-0.6,0.6-0.6,0.6-0.6c0.6-0.6,0.6-1.2,0.6-1.2c0-1.2,0-2.5,0-3.7c0-0.6,0-1.2,0-2.5s0-1.2-0.6-1.9c-0.6-0.6-1.2-1.9-1.9-3.1
		c-0.6-0.6-0.6-0.6-0.6-1.2c-0.6-0.6-0.6-0.6-1.2-1.2l0,0c-0.6-0.6-0.6-0.6-1.2-0.6c-0.6,0-0.6-0.6-0.6-0.6l-0.6-0.6
		c0,0-0.6,0-0.6-0.6h-0.6c-0.6-0.6-0.6-0.6-1.2-0.6s-0.6-0.6-0.6-0.6c-1.9-0.6-3.7-0.6-4.3-0.6H236c0,0-1.2,0-2.5,0.6
		c-0.6,0-0.6,0-0.6,0h-0.6c-0.6,0-0.6,0.6-1.2,0.6s-0.6,0-0.6,0.6c0,0-0.6,0-0.6,0.6c0,0-0.6,0-0.6,0.6c-0.6,0.6-0.6,0.6-0.6,1.2
		c0,0,0,0.6-0.6,0.6l-0.6,0.6c-0.6,0.6-1.2,0.6-1.9,2.5v0.6c0,0.6-0.6,0.6-0.6,1.2s-0.6,0.6-0.6,0.6c-0.6,2.5,0,5.6,0.6,6.8
		C224.3,164.8,224.3,166.7,224.9,168.5z"/>
	<path fill="#333333" d="M257.6,225.9c-0.6-0.6-0.6-0.6-1.2-1.2c-0.6-0.6-0.6-0.6-1.2-0.6c-0.6-0.6-0.6-1.2-1.2-1.9
		c-1.2-0.6-2.5-0.6-3.7-0.6c-0.6,0-0.6,0-0.6,0H249h-1.2c-1.2,0-2.5,0-2.5,0c-0.6,0-0.6,0-0.6,0c-2.5,0.6-3.7,2.5-4.3,3.7
		c0,0.6-0.6,0.6-0.6,0.6c-0.6,0.6-0.6,0.6-0.6,0.6v0.6c-0.6,0.6-0.6,0.6-0.6,1.2l0,0c-0.6,0.6-0.6,0.6-0.6,1.2
		c-0.6,0.6-0.6,0.6-0.6,1.9c-0.6,1.2-0.6,2.5-0.6,3.7l0,0c-0.6,0.6-0.6,0.6-0.6,1.2c0,0,0,0.6-0.6,0.6c-0.6,0.6-0.6,1.2-0.6,1.9
		c-0.6,0.6-1.2,2.5-1.2,2.5c-0.6,0.6-0.6,0.6-0.6,1.9l0,0c-0.6,0.6-0.6,0.6-0.6,0.6c-0.6,0.6-0.6,0.6-0.6,1.2
		c-0.6,0.6-0.6,0.6-0.6,0.6l-0.6,0.6c-0.6,0.6-0.6,1.2-1.9,2.5c-0.6,0.6-0.6,0.6-0.6,1.2c-0.6,0.6-2.5,1.9-3.1,2.5
		c-0.6,0.6-0.6,0.6-1.2,1.2c0,0,0,0-0.6,0.6h-0.6c0,0-0.6,0-0.6,0.6c-0.6,0-1.2,0.6-1.9,0.6c-0.6,0-0.6,0.6-0.6,0.6
		c-0.6,0.6-0.6,0.6-0.6,0.6l0,0c-0.6,0-0.6,0.6-0.6,0.6s-0.6,0-0.6,0.6c-0.6,0-0.6,0-0.6,0.6c-0.6,0-0.6,0.6-0.6,0.6
		c-0.6,0-0.6,0.6-1.2,0.6c-0.6,0-0.6,0-0.6,0.6c0,0,0,0-0.6,0c0,0,0,0-0.6,0c0,0,0,0-0.6,0l0,0c0,0,0,0-0.6,0l0,0h-0.6l0,0
		c0,0,0,0-0.6,0h-0.6l0,0l0,0l0,0l0,0l0,0c0,0,0,0-0.6,0c0,0,0,0-0.6,0c0,0,0,0-0.6,0l0,0l-1.2,0.6c-1.2,0.6-2.5,1.2-3.7,1.2
		c-1.9,0.6-3.7,0.6-6.2,0.6c-0.6,0-0.6-0.6-1.2-0.6h-0.6h-0.6c-1.2,0-3.1-0.6-4.3-0.6h-0.6l-0.6-0.6c-0.6-0.6-0.6-0.6-1.9-0.6
		c-1.2-0.6-1.9-0.6-2.5-0.6c-0.6-0.6-0.6-0.6-0.6-0.6s-0.6,0-0.6-0.6c0,0-0.6,0-0.6-0.6c0,0-0.6,0-0.6-0.6l-0.6-0.6
		c-0.6-0.6-0.6-0.6-0.6-0.6c-0.6-0.6-0.6-0.6-1.2-0.6h-0.6c0,0,0,0-0.6,0c-0.6-0.6-0.6-0.6-1.2-0.6l0,0c-0.6-0.6-0.6-0.6-1.9-0.6
		c0-0.6-0.6-0.6-0.6-0.6c-0.6,0-0.6-0.6-0.6-0.6l-0.6-0.6l0,0c-0.6-0.6-0.6-0.6-1.9-0.6c-0.6-0.6-0.6-0.6-0.6-1.2
		c-0.6-0.6-0.6-0.6-0.6-1.2c-0.6-0.6-1.2-1.2-1.9-2.5c0-0.6,0-0.6-0.6-0.6c0-0.6-0.6-0.6-0.6-0.6c0-0.6,0-0.6-0.6-0.6
		c0-0.6-0.6-0.6-0.6-0.6l-0.6-0.6c0,0,0,0,0-0.6c0-0.6-0.6-0.6-0.6-0.6V242c0-0.6,0-0.6-0.6-0.6c0-0.6-0.6-0.6-0.6-0.6v-0.6
		c0-0.6-0.6-0.6-0.6-0.6v-0.6v-0.6c0-0.6-0.6-0.6-0.6-0.6s0-0.6-0.6-0.6c0-0.6-0.6-0.6-0.6-0.6s0-0.6-0.6-0.6c0-0.6-0.6-0.6-0.6-0.6
		l0,0c-0.6-0.6-0.6-1.2-1.2-1.2c0-0.6-0.6-0.6-0.6-0.6c-0.6-0.6-0.6-1.2-1.2-1.9l-0.6-0.6c-0.6-0.6-1.2-1.9-2.5-2.5l-0.6-0.6
		c-0.6-0.6-0.6-0.6-0.6-0.6c-1.9-0.6-3.7-0.6-5.6-0.6c-1.2,0-2.5,0-3.7,0.6c-2.5,0.6-4.9,3.1-5.6,5.6c0,0.6-0.6,0.6-0.6,1.2
		c0,0.6-0.6,0.6-0.6,0.6c0,0.6,0,1.2,0,2.5c0,0.6-0.6,0.6-0.6,1.9c0,1.2,0,2.5,0.6,3.1c0.6,0.6,0.6,2.5,1.2,3.1l0.6,0.6l0,0
		c0,0.6,0.6,0.6,0.6,0.6c0,0.6,0.6,0.6,0.6,0.6v0.6c0,0.6,0.6,0.6,0.6,1.2s0.6,0.6,0.6,0.6s0,0.6,0.6,0.6c0,0.6,0.6,0.6,0.6,0.6
		s0,0,0,0.6c0,0,0,0,0,0.6s0,0.6,0.6,0.6c0,0.6,0.6,0.6,0.6,0.6c0,0.6,0.6,0.6,0.6,1.2c0,0,0,0,0,0.6v0.6c0,0.6,0.6,0.6,0.6,0.6v0.6
		c0,0,0,0.6,0.6,0.6c0,0.6,0.6,0.6,0.6,0.6s0,0.6,0.6,0.6c0,0.6,0.6,0.6,0.6,0.6s0,0.6,0.6,0.6c0,0,0,0.6,0.6,0.6
		c0.6,0.6,0.6,0.6,0.6,0.6l0.6,0.6c0.6,0.6,0.6,0.6,0.6,1.2c0,0,0,0.6,0.6,0.6c0,0.6,0.6,0.6,0.6,1.2c0,0.6,0,0.6,0,0.6
		s0.6,0.6,0.6,1.2c0.6,0.6,0.6,0.6,0.6,1.2c0,0.6,0.6,0.6,0.6,1.2c0.6,0.6,0.6,0.6,1.2,0.6c0,0.6,0.6,0.6,0.6,0.6
		c0.6,0.6,0.6,0.6,1.2,1.2c0.6,0.6,0.6,0.6,0.6,0.6s0.6,0,0.6,0.6c0.6,0.6,1.9,1.2,3.1,2.5l0.6,0.6l0.6,0.6l0.6,0.6l0.6,0.6l0.6,0.6
		c0.6,0.6,0.6,0.6,1.9,0.6c0,0,0,0,0.6,0l0.6,0.6c0.6,0.6,1.2,0.6,1.9,0.6c0.6,0.6,1.2,0.6,1.2,0.6c0.6,0.6,0.6,0.6,1.2,0.6l0.6,0.6
		c0.6,0,0.6,0.6,0.6,0.6c0.6,0.6,0.6,0.6,1.2,0.6l0.6,0.6c0.6,0,0.6,0.6,0.6,0.6h0.6l0.6,0.6c0.6,0.6,1.2,0.6,2.5,0.6l0.6,0.6
		c0.6,0,0.6,0.6,1.2,0.6s0.6,0,1.9,0.6c0.6,0,0.6,0,0.6,0c0.6,0.6,1.2,0.6,1.9,0.6c1.2,0.6,2.5,0.6,3.7,0.6c0.6,0,1.9,0.6,2.5,0.6
		s0.6,0,1.9,0c0.6,0,1.9,0,2.5,0h1.2c0.6,0,2.5,0,3.1,0c1.9,0,2.5,0,3.7-0.6c0,0,0,0,0.6,0h0.6c1.9,0,3.1-0.6,3.7-0.6l1.2-0.6
		c0.6,0,1.9-0.6,2.5-0.6c0.6-0.6,1.9-0.6,2.5-0.6c0.6,0,0.6,0,0.6-0.6c0.6,0,0.6,0,0.6-0.6c1.2-0.6,2.5-1.2,3.7-1.9
		c0.6,0,0.6-0.6,1.2-0.6s0.6,0,1.2-0.6c0.6,0,0.6-0.6,0.6-0.6l0,0c0.6,0,0.6-0.6,0.6-0.6c0.6,0,0.6,0,0.6-0.6c0.6,0,0.6-0.6,0.6-0.6
		l0,0c0.6,0,0.6-0.6,0.6-0.6c0.6,0,0.6,0,1.2-0.6c0.6,0,0.6-0.6,0.6-0.6l0.6-0.6c0.6-0.6,0.6-0.6,0.6-0.6c0.6,0,0.6-0.6,0.6-0.6
		l0.6-0.6l0,0c0.6,0,0.6-0.6,0.6-0.6l0,0c0.6-0.6,0.6-0.6,1.2-0.6c0.6,0,0.6-0.6,0.6-0.6l0.6-0.6c0.6-0.6,2.5-1.2,3.1-2.5
		c0.6-0.6,1.2-1.2,1.9-1.9c0.6-0.6,0.6-1.2,1.9-1.9c0.6,0,0.6-0.6,1.2-0.6c0.6-0.6,0.6-0.6,1.2-1.2l0.6-0.6l0.6-0.6l0.6-0.6
		c0.6-0.6,1.9-1.2,2.5-2.5l0.6-0.6c0,0,0-0.6,0.6-0.6c0-0.6,0.6-0.6,0.6-0.6V258c0.6,0,0.6-0.6,0.6-0.6c0.6-0.6,0.6-0.6,0.6-0.6l0,0
		c0.6-0.6,0.6-0.6,0.6-1.9l0.6-0.6l0.6-0.6l0.6-0.6c0.6-0.6,0.6-0.6,0.6-1.2l0,0c0.6,0,0.6-0.6,0.6-1.2c0.6-0.6,0.6-0.6,0.6-0.6
		v-0.6l0.6-0.6c0.6-0.6,0.6-0.6,0.6-0.6l0.6-0.6l0.6-0.6c0.6-0.6,0.6-1.2,0.6-2.5v-0.6c0.6-0.6,0.6-1.2,0.6-1.2
		c0.6-0.6,0.6-0.6,0.6-2.5c1.2-3.1,2.5-6.8,2.5-13c0-0.6,0-0.6-0.6-1.2C259.5,227.2,258.9,225.9,257.6,225.9z"/>
</g>
</svg>
