<?xml version="1.0" encoding="utf-8"?>
<!-- Generator: Adobe Illustrator 18.1.1, SVG Export Plug-In . SVG Version: 6.00 Build 0)  -->
<svg version="1.1" id="Layer_1" xmlns="http://www.w3.org/2000/svg" xmlns:xlink="http://www.w3.org/1999/xlink" x="0px" y="0px"
	 viewBox="232 400 1368 1368" enable-background="new 232 400 1368 1368" xml:space="preserve">
<text transform="matrix(1 0 0 1 -8431.3408 15004.1924)" font-family="'ArialMT'" font-size="58.3693">3/10</text>
<text transform="matrix(1 0 0 1 731.2976 16721.084)" font-family="'ArialMT'" font-size="366.0053">save</text>
<text transform="matrix(1 0 0 1 -3033.6609 16721.084)" font-family="'ArialMT'" font-size="363.936">cancel</text>
<rect x="78939.6" y="-2573.8" fill="#9BCC32" width="3040" height="3040"/>
<rect x="78939.6" y="1266.2" fill="#EB565A" width="3040" height="3040"/>
<rect x="78939.6" y="5770.2" fill="#E83147" width="3040" height="3040"/>
<text transform="matrix(1 0 0 1 63784.9336 -1640.4954)" enable-background="new    "><tspan x="0" y="0" font-family="'ArialMT'" font-size="75">9bcc32 </tspan><tspan x="262.7" y="0" font-family="'ArialMT'" font-size="75">g</tspan><tspan x="304.4" y="0" font-family="'ArialMT'" font-size="75">r</tspan><tspan x="329.4" y="0" font-family="'ArialMT'" font-size="75">ee</tspan><tspan x="412.8" y="0" font-family="'ArialMT'" font-size="75">n</tspan></text>
<text transform="matrix(1 0 0 1 63784.9336 3079.5049)" enable-background="new    "><tspan x="0" y="0" font-family="'ArialMT'" font-size="75">eb565a</tspan><tspan x="250.3" y="0" font-family="'ArialMT'" font-size="75"> </tspan><tspan x="271.1" y="0" font-family="'ArialMT'" font-size="75">r</tspan><tspan x="296.1" y="0" font-family="'ArialMT'" font-size="75">e</tspan><tspan x="337.8" y="0" font-family="'ArialMT'" font-size="75">d</tspan></text>
<rect x="50619.6" y="-2973.8" fill="#007F00" width="3040" height="3040"/>
<rect x="50619.6" y="866.2" fill="#FF0000" width="3040" height="3040"/>
<text transform="matrix(1 0 0 1 54318.2695 -1427.1776)" font-family="'ArialMT'" font-size="75">0 127 0</text>
<text transform="matrix(1 0 0 1 54318.2695 3079.5049)" font-family="'ArialMT'" font-size="75">255 0 0</text>
<text transform="matrix(1 0 0 1 85064.9297 -1053.8339)" enable-background="new    "><tspan x="0" y="0" font-family="'ArialMT'" font-size="75">155,2</tspan><tspan x="187.7" y="0" font-family="'ArialMT'" font-size="75">0</tspan><tspan x="229.4" y="0" font-family="'ArialMT'" font-size="75">4,50</tspan></text>
<text transform="matrix(1 0 0 1 85064.9297 3601.6506)" enable-background="new    "><tspan x="0" y="0" font-family="'ArialMT'" font-size="75">235,8</tspan><tspan x="187.7" y="0" font-family="'ArialMT'" font-size="75">6</tspan><tspan x="229.4" y="0" font-family="'ArialMT'" font-size="75">,90</tspan></text>
<text transform="matrix(1 0 0 1 86569.5625 6826.1665)" enable-background="new    "><tspan x="0" y="0" font-family="'MyriadPro-Regular'" font-size="320">b9</tspan><tspan x="346.2" y="0" font-family="'MyriadPro-Regular'" font-size="320">4</tspan><tspan x="510.4" y="0" font-family="'MyriadPro-Regular'" font-size="320">a</tspan><tspan x="664.6" y="0" font-family="'MyriadPro-Regular'" font-size="320">48 da</tspan><tspan x="1395.5" y="0" font-family="'MyriadPro-Regular'" font-size="320">n</tspan><tspan x="1573.1" y="0" font-family="'MyriadPro-Regular'" font-size="320">ger </tspan><tspan x="2084.8" y="0" font-family="'MyriadPro-Regular'" font-size="320">r</tspan><tspan x="2189.4" y="0" font-family="'MyriadPro-Regular'" font-size="320">ed</tspan></text>
<text transform="matrix(1 0 0 1 86569.5625 7594.1714)" enable-background="new    "><tspan x="0" y="0" font-family="'MyriadPro-Regular'" font-size="320">953</tspan><tspan x="492.5" y="0" font-family="'MyriadPro-Regular'" font-size="320">b</tspan><tspan x="674.5" y="0" font-family="'MyriadPro-Regular'" font-size="320">39 hov</tspan><tspan x="1577.9" y="0" font-family="'MyriadPro-Regular'" font-size="320">e</tspan><tspan x="1738.2" y="0" font-family="'MyriadPro-Regular'" font-size="320">r </tspan><tspan x="1910.7" y="0" font-family="'MyriadPro-Regular'" font-size="320">d</tspan><tspan x="2091.2" y="0" font-family="'MyriadPro-Regular'" font-size="320">a</tspan><tspan x="2245.4" y="0" font-family="'MyriadPro-Regular'" font-size="320">n</tspan><tspan x="2423" y="0" font-family="'MyriadPro-Regular'" font-size="320">g</tspan><tspan x="2601.9" y="0" font-family="'MyriadPro-Regular'" font-size="320">e</tspan><tspan x="2762.2" y="0" font-family="'MyriadPro-Regular'" font-size="320">r red</tspan></text>
<text transform="matrix(1 0 0 1 91002.7109 6055.5361)" enable-background="new    "><tspan x="0" y="0" font-family="'ArialMT'" font-size="444.2507">5cb85c gre</tspan><tspan x="2198" y="0" font-family="'ArialMT'" font-size="444.2507">e</tspan><tspan x="2445.1" y="0" font-family="'ArialMT'" font-size="444.2507">n</tspan><tspan x="2692.2" y="0" font-family="'ArialMT'" font-size="444.2507"> </tspan><tspan x="2815.6" y="0" font-family="'ArialMT'" font-size="444.2507">suc</tspan><tspan x="3506.9" y="0" font-family="'ArialMT'" font-size="444.2507">c</tspan><tspan x="3729.1" y="0" font-family="'ArialMT'" font-size="444.2507">ess</tspan></text>
<g id="Layer_2_1_" display="none">
</g>
<g id="Layer_3_1_">
</g>
<g>
	<path fill="#9BCC32" d="M1170.7,648.3c0-13.3-10.7-24-26.7-26.7c-40-5.3-82.7,5.3-117.3,29.3c0-2.7,0-2.7,0-5.3
		c0-74.7-32-144-90.7-192c-10.7-8-26.7-8-34.7,0c-58.7,48-90.7,117.3-90.7,192c0,2.7,0,5.3,0,10.7c-34.7-24-80-37.3-122.7-32
		c-13.3,0-24,10.7-26.7,26.7c-5.3,53.3,13.3,106.7,53.3,146.7c18.7,18.7,40,32,64,42.7c-40,37.3-64,88-64,146.7
		c0,58.7,32,250.7,66.7,445.3l0,0c0,2.7,0,8,2.7,10.7c8,45.3,16,88,24,133.3c5.3,24,8,42.7,8,50.7c13.3,77.3,45.3,93.3,98.7,93.3
		c53.3,0,85.3-16,98.7-93.3c2.7-16,10.7-56,18.7-106.7c40-224,85.3-466.7,85.3-536c0-58.7-24-112-64-146.7c24-8,45.3-24,64-42.7
		C1157.3,755,1176,701.7,1170.7,648.3z M920,515c32,34.7,50.7,82.7,50.7,130.7c0,48-18.7,96-50.7,130.7l0,0
		c-34.7-34.7-50.7-82.7-50.7-130.7C869.3,595,888,549.7,920,515z M720,677.7c29.3,2.7,53.3,16,74.7,34.7c21.3,21.3,32,48,34.7,74.7
		c-29.3-2.7-53.3-16-74.7-34.7C736,733.7,722.7,707,720,677.7z M1061.3,984.3c0,69.3-53.3,365.3-82.7,525.3
		c-10.7,53.3-16,90.7-18.7,106.7c-8,45.3-13.3,45.3-42.7,45.3s-34.7,0-42.7-48c-2.7-8-5.3-26.7-10.7-50.7
		c-5.3-26.7-10.7-64-18.7-104h69.3c16,0,29.3-13.3,29.3-29.3c0-16-13.3-29.3-29.3-29.3h-80c-5.3-24-8-48-13.3-72h93.3
		c16,0,29.3-13.3,29.3-29.3c0-16-13.3-29.3-29.3-29.3H813.3c-5.3-26.7-8-50.7-13.3-74.7h114.7c16,0,29.3-13.3,29.3-29.3
		s-13.3-29.3-29.3-29.3H789.3c-10.7-72-18.7-130.7-18.7-157.3c0-80,64-144,144-144S1061.3,904.3,1061.3,984.3z M1077.3,755
		c-21.3,21.3-48,32-74.7,34.7c2.7-29.3,16-53.3,34.7-74.7c21.3-21.3,48-32,74.7-34.7C1112,707,1098.7,733.7,1077.3,755z"/>
</g>
</svg>
