<?xml version="1.0" encoding="utf-8"?>
<!-- Generator: Adobe Illustrator 18.1.1, SVG Export Plug-In . SVG Version: 6.00 Build 0)  -->
<svg version="1.1" id="Layer_1" xmlns="http://www.w3.org/2000/svg" xmlns:xlink="http://www.w3.org/1999/xlink" x="0px" y="0px"
	 viewBox="0 0 64.8 60.7" enable-background="new 0 0 64.8 60.7" xml:space="preserve">
<g>
	<path fill="#FFFFFF" d="M43.4,38.9H37c-0.7,0-1.2-0.6-1.2-1.2V27.6H29v10.1c0,0.7-0.6,1.2-1.2,1.2h-6.4c-0.7,0-1.2-0.6-1.2-1.2
		V25.1h-1.8c-0.5,0-1-0.3-1.1-0.8c-0.2-0.5-0.1-1,0.3-1.4L31.5,8.9c0.5-0.5,1.3-0.5,1.8,0L47.4,23c0.4,0.4,0.5,0.9,0.3,1.4
		c-0.2,0.5-0.6,0.8-1.1,0.8h-1.8v12.6C44.7,38.4,44.1,38.9,43.4,38.9z M37.4,37.3H43V24.7c0-0.7,0.6-1.2,1.2-1.2h1.3L32.4,10.3
		L19.3,23.5h1.3c0.7,0,1.2,0.6,1.2,1.2v12.6h5.6V27.2c0-0.7,0.6-1.2,1.2-1.2h7.6c0.7,0,1.2,0.6,1.2,1.2V37.3z"/>
</g>
<g>
	<path fill="#FFFFFF" d="M10.5,47.5h1v4.3h5.4v-4.3h1v9.9h-1v-4.7h-5.4v4.7h-1V47.5z"/>
	<path fill="#FFFFFF" d="M26.2,57.6c-3,0-5.2-2.2-5.2-5.2s2.2-5.2,5.2-5.2c3,0,5.2,2.2,5.2,5.2S29.2,57.6,26.2,57.6z M26.2,48.1
		c-2.5,0-4.1,2-4.1,4.3c0,2.3,1.6,4.3,4.1,4.3c2.5,0,4.1-2,4.1-4.3C30.3,50.1,28.8,48.1,26.2,48.1z"/>
	<path fill="#FFFFFF" d="M39.4,55.7L39.4,55.7l3.3-8.2h1.5v9.9h-1v-8.6h0l-3.6,8.6h-0.5l-3.6-8.6h0v8.6h-1v-9.9h1.5L39.4,55.7z"/>
	<path fill="#FFFFFF" d="M49,56.5h5.3v0.9H48v-9.9h6.1v0.9H49v3.4h4.8v0.9H49V56.5z"/>
</g>
</svg>
