<?xml version="1.0" encoding="utf-8"?>
<!-- Generator: Adobe Illustrator 18.1.1, SVG Export Plug-In . SVG Version: 6.00 Build 0)  -->
<svg version="1.1" id="Layer_1" xmlns="http://www.w3.org/2000/svg" xmlns:xlink="http://www.w3.org/1999/xlink" x="0px" y="0px"
	 viewBox="0 68 400 260" enable-background="new 0 68 400 260" xml:space="preserve">
<g>
	<path fill="#FFFFFF" d="M91.9,200.2c0.6-3.5,2.2-5.1,4.1-5.1c2.5,0,5.7,3.8,5.7,7c0,0.3,0,0.6-0.3,1.3c-2.9,11.1-9.5,26-23.8,26
		c-5.7,0-10.5-2.9-12.7-7c-3.2,3.8-7.9,7-14.3,7c-13,0-19.7-11.1-19.7-25.1c0-27.9,19.4-44.8,39.7-44.8c4.4,0,7.6,2.5,7.6,7
		c0,2.9-0.6,3.8-2.2,3.8c-1.6,0-3.2-0.3-4.8-0.3c-12.7,0-27.6,10.8-27.6,34.9c0,8.6,3.8,13.7,9.5,13.7c4.4,0,7.6-4.1,9.2-8.6v-25.7
		c0-3.2-0.6-4.1-0.6-5.4c0-1.6,1.9-2.9,4.4-2.9c5.4,0,8.9,3.2,8.9,7.3V211c0,3.8,1.6,7.6,5.7,7.6C87.4,218.3,90.6,207.5,91.9,200.2z
		"/>
	<path fill="#FFFFFF" d="M105.2,228.4v54c0,6-5.4,7.3-8.9,7.3c-3.5,0-3.8-1.9-3.8-4.4V169c0-4.8-1.6-5.1-1.6-6.3
		c0-1.3,2.9-1.9,5.4-1.9c5.4,0,8.9,3.2,8.9,7.3c3.5-5.1,8.3-8.9,15.2-8.9c13,0,19.4,12.7,19.4,29.2c0,9.2-1.9,18.4-4.4,24.4
		c11.1-0.6,13.3-4.8,17.5-12.7c1.6-3.2,2.2-4.4,3.8-4.4c2.9,0,6,4.1,6,6.3c0,7.6-10.5,21.3-32.4,21.3c-4.4,4.8-11.1,7.6-16.8,7.6
		C109,231,106.5,230,105.2,228.4z M105.2,184.3v35.9c2.2-3.5,7.9-5.1,15.6-5.7c4.1-5.7,5.7-17.1,5.7-23.2c0-15.2-4.8-21-10.5-21
		C111.2,170.3,107.1,176.3,105.2,184.3z"/>
	<path fill="#FFFFFF" d="M165.2,228.4v54c0,6-5.4,7.3-8.9,7.3c-3.2,0-3.8-1.9-3.8-4.4V169c0-4.8-1.6-5.1-1.6-6.3
		c0-1.3,2.9-1.9,5.4-1.9c5.4,0,8.9,3.2,8.9,7.3c3.5-5.1,8.3-8.9,15.2-8.9c13,0,19.4,12.7,19.4,29.2c0,9.2-1.9,18.4-4.4,24.4
		c11.1-0.6,13.3-4.8,17.5-12.7c1.6-3.2,2.2-4.4,3.8-4.4c2.9,0,6,4.1,6,6.3c0,7.6-10.5,21.3-32.4,21.3c-4.4,4.8-11.1,7.6-16.8,7.6
		C169,231,166.5,230,165.2,228.4z M165.2,184.3v35.9c2.2-3.5,7.9-5.1,15.6-5.7c4.1-5.7,5.7-17.1,5.7-23.2c0-15.2-4.8-21-10.5-21
		C171.2,170.3,166.8,176.3,165.2,184.3z"/>
	<path fill="#FFFFFF" d="M226.2,207.8c2.2,5.7,7,10.5,15.6,10.5c13,0,18.4-10.8,20.3-21c1.6-7.6,10.8-4.1,10.2,1.6
		c-1.3,10.2-7.9,30.2-32.4,30.2c-15.2,0-29.5-12.1-29.5-33c0-21.3,12.7-36.8,25.4-36.8c9.2,0,14.9,7,14.9,16.8
		C250.6,188.4,242.4,203,226.2,207.8z M223.9,198.9c8.3-3.8,13.7-12.4,13.7-22.5c0-3.8-1.3-5.7-3.5-5.7c-8.3,0-10.8,18.4-10.5,25.4
		C223.9,196.7,223.9,197.6,223.9,198.9z"/>
	<path fill="#FFFFFF" d="M261.7,146.8v-28.3c0-4.8-1.6-5.1-1.6-6.3s2.9-1.9,5.4-1.9c5.4,0,8.9,3.2,8.9,7.3v29.2
		c10.2,0,21.9-0.3,33-0.6c4.8-5.1,3.2,11.1-1.3,11.1c-13.3,0.3-23.2,0.3-32.1,0.3v52.7c0,5.4,2.2,7.6,5.7,7.6
		c6.7,0,9.5-10.8,11.1-18.1c0.6-3.5,2.2-5.1,4.1-5.1c2.5,0,5.7,3.8,5.7,7c0,0.3,0,0.6-0.3,1.3c-2.9,11.1-9.5,26-23.8,26
		c-8.9,0-15.2-5.4-15.2-18.4v-53c-7.3,0-11.4-0.3-11.4-0.3c-5.4,0-8.3-11.1-3.5-11.1C246.8,146.2,252.8,146.5,261.7,146.8z"/>
	<path fill="#FFFFFF" d="M290.6,134.4c0-5.7,4.4-10.2,9.8-10.2c5.7,0,10.2,4.4,10.2,10.2c0,5.4-4.4,10.2-10.2,10.2
		C295.1,144.6,290.6,139.8,290.6,134.4z M304.3,210.6c0,1.6,0,7.6,4.4,7.6c6.7,0,9.5-10.8,11.1-18.1c1.9-10.2,11.1-2.2,9.5,2.9
		c-2.9,11.1-9.5,26-23.8,26c-8.9,0-14-7.3-14-15.6V169c0-3.2-0.6-4.1-0.6-5.4c0-1.6,1.9-2.9,4.4-2.9c5.4,0,8.9,3.2,8.9,7.3V210.6z"
		/>
	<path fill="#FFFFFF" d="M320.5,146.8v-28.3c0-4.8-1.6-5.1-1.6-6.3s2.9-1.9,5.4-1.9c5.4,0,8.9,3.2,8.9,7.3v29.2
		c10.2,0,21.9-0.3,33-0.6c4.8-5.1,3.2,11.1-1.3,11.1c-13.3,0.3-23.2,0.3-32.1,0.3v52.7c0,5.4,2.2,7.6,5.7,7.6
		c6.7,0,9.5-10.8,11.1-18.1c0.6-3.5,2.2-5.1,4.1-5.1c2.5,0,5.7,3.8,5.7,7c0,0.3,0,0.6-0.3,1.3c-2.9,11.1-9.5,26-23.8,26
		c-8.9,0-15.2-5.4-15.2-18.4v-53c-7.3,0-11.4-0.3-11.4-0.3c-5.4,0-8.3-11.1-3.5-11.1C305.2,146.2,311.2,146.5,320.5,146.8z"/>
</g>
</svg>
