<?xml version="1.0" encoding="utf-8"?>
<!-- Generator: Adobe Illustrator 18.1.1, SVG Export Plug-In . SVG Version: 6.00 Build 0)  -->
<svg version="1.1" id="Layer_1" xmlns="http://www.w3.org/2000/svg" xmlns:xlink="http://www.w3.org/1999/xlink" x="0px" y="0px"
	 viewBox="0 0 64.8 60.7" enable-background="new 0 0 64.8 60.7" xml:space="preserve">
<g>
	<path fill="#FFFFFF" d="M17.1,5.8h1.4v33.3h-1.4V5.8z"/>
	<path fill="#FFFFFF" d="M15.7,36.4h33.3v1.4H15.7V36.4z"/>
	<path fill="#FFFFFF" d="M45.6,35h-2.8c-0.4,0-0.7-0.3-0.7-0.7v-5.6c0-0.4,0.3-0.7,0.7-0.7h2.8c0.4,0,0.7,0.3,0.7,0.7v5.6
		C46.3,34.7,45.9,35,45.6,35z M43.5,33.6h1.4v-4.2h-1.4V33.6z"/>
	<path fill="#FFFFFF" d="M38.6,35h-2.8c-0.4,0-0.7-0.3-0.7-0.7V23.2c0-0.4,0.3-0.7,0.7-0.7h2.8c0.4,0,0.7,0.3,0.7,0.7v11.1
		C39.3,34.7,39,35,38.6,35z M36.5,33.6h1.4v-9.7h-1.4V33.6z"/>
	<path fill="#FFFFFF" d="M31.7,35h-2.8c-0.4,0-0.7-0.3-0.7-0.7v-6.9c0-0.4,0.3-0.7,0.7-0.7h2.8c0.4,0,0.7,0.3,0.7,0.7v6.9
		C32.4,34.7,32.1,35,31.7,35z M29.6,33.6H31v-5.6h-1.4V33.6z"/>
	<path fill="#FFFFFF" d="M24.7,35H22c-0.4,0-0.7-0.3-0.7-0.7V13.5c0-0.4,0.3-0.7,0.7-0.7h2.8c0.4,0,0.7,0.3,0.7,0.7v20.8
		C25.4,34.7,25.1,35,24.7,35z M22.6,33.6H24V14.2h-1.4V33.6z"/>
</g>
<g>
	<path fill="#FFFFFF" d="M5.1,57.4h-1v-9.9H7c2,0,3.4,0.7,3.4,2.6c0,1.5-1.1,2.4-2.5,2.5l2.9,4.7H9.5l-2.7-4.6H5.1V57.4z M5.1,51.9
		h1.8c1.6,0,2.5-0.6,2.5-1.8c0-1.3-1-1.8-2.5-1.8H5.1V51.9z"/>
	<path fill="#FFFFFF" d="M14.5,56.5h5.3v0.9h-6.3v-9.9h6.1v0.9h-5.1v3.4h4.8v0.9h-4.8V56.5z"/>
	<path fill="#FFFFFF" d="M22.8,47.5h2.8c2,0,3.3,0.9,3.3,2.6c0,1.8-1.4,2.7-3.4,2.7h-1.8v4.6h-1V47.5z M23.9,51.9h1.7
		c1.6,0,2.4-0.6,2.4-1.8c0-1.2-0.9-1.8-2.4-1.8h-1.7V51.9z"/>
	<path fill="#FFFFFF" d="M36.6,57.6c-3,0-5.2-2.2-5.2-5.2s2.2-5.2,5.2-5.2c3,0,5.2,2.2,5.2,5.2S39.6,57.6,36.6,57.6z M36.6,48.1
		c-2.5,0-4.1,2-4.1,4.3c0,2.3,1.6,4.3,4.1,4.3c2.5,0,4.1-2,4.1-4.3C40.8,50.1,39.2,48.1,36.6,48.1z"/>
	<path fill="#FFFFFF" d="M46,57.4h-1v-9.9h2.9c2,0,3.4,0.7,3.4,2.6c0,1.5-1.1,2.4-2.5,2.5l2.9,4.7h-1.2l-2.7-4.6H46V57.4z M46,51.9
		h1.8c1.6,0,2.5-0.6,2.5-1.8c0-1.3-1-1.8-2.5-1.8H46V51.9z"/>
	<path fill="#FFFFFF" d="M57.4,57.4h-1v-9h-3.3v-0.9h7.6v0.9h-3.3V57.4z"/>
</g>
</svg>
