<?xml version="1.0" encoding="utf-8"?>
<!-- Generator: Adobe Illustrator 18.1.1, SVG Export Plug-In . SVG Version: 6.00 Build 0)  -->
<svg version="1.1" id="Layer_1" xmlns="http://www.w3.org/2000/svg" xmlns:xlink="http://www.w3.org/1999/xlink" x="0px" y="0px"
	 viewBox="-795.4 1048.6 64.8 64.8" enable-background="new -795.4 1048.6 64.8 64.8" xml:space="preserve">
<g>
	<path fill="#FFFFFF" d="M-763,1102.6L-763,1102.6c-2.5,0-4.7-1.6-5.5-3.8c-1.1-0.3-2.1-0.8-3.2-1.3c-0.8,0.3-1.6,0.5-2.4,0.5
		c-1.6,0-3-0.6-4.2-1.7c-1.8-1.8-2.2-4.4-1.2-6.6c-0.5-1-1-2.1-1.3-3.2c-2.3-0.8-3.8-3-3.8-5.5c0-2.5,1.5-4.7,3.8-5.5
		c0.3-1.1,0.8-2.1,1.3-3.2c-1-2.2-0.6-4.8,1.2-6.6c1.1-1.1,2.6-1.7,4.2-1.7c0.8,0,1.7,0.2,2.4,0.5c1-0.5,2.1-1,3.1-1.3
		c0.8-2.3,3-3.8,5.5-3.8c2.5,0,4.7,1.5,5.5,3.8c1.1,0.3,2.1,0.8,3.2,1.3c0.8-0.4,1.6-0.5,2.5-0.5c1.6,0,3,0.6,4.2,1.7
		c1.8,1.8,2.2,4.4,1.2,6.6c0.5,1,1,2.1,1.3,3.1c2.3,0.8,3.8,3,3.8,5.5v0.1c0,0,0,0,0,0c0,2.5-1.6,4.7-3.8,5.5
		c-0.3,1.1-0.8,2.1-1.3,3.2c1,2.2,0.6,4.8-1.2,6.6c-1.1,1.1-2.6,1.7-4.2,1.7l0,0c-0.8,0-1.7-0.2-2.4-0.5c-1,0.5-2.1,1-3.2,1.3
		C-758.3,1101.1-760.5,1102.6-763,1102.6z M-771.7,1093.9l0.9,0.5c1.3,0.7,2.6,1.3,4,1.7l1,0.2l0.2,1c0.3,1.3,1.4,2.2,2.7,2.2v1.6
		l0-1.6c1.3,0,2.5-0.9,2.7-2.3l0.2-1l1-0.2c1.4-0.4,2.7-0.9,4-1.7l0.9-0.5l0.8,0.6c0.5,0.3,1,0.5,1.6,0.5l0,0c0.7,0,1.4-0.3,2-0.8
		c0.9-0.9,1.1-2.4,0.3-3.5l-0.6-0.8l0.5-0.9c0.7-1.3,1.3-2.6,1.7-4l0.2-1l1-0.2c1.3-0.2,2.2-1.4,2.3-2.7l0-0.1l0-0.1
		c0-1.3-1-2.4-2.3-2.7l-1-0.2l-0.3-1c-0.4-1.4-0.9-2.7-1.7-4l-0.5-0.9l0.6-0.8c0.7-1.1,0.6-2.6-0.3-3.5c-0.9-0.9-2.5-1-3.5-0.3
		l-0.8,0.6l-0.9-0.5c-1.3-0.7-2.6-1.3-4-1.7l-1-0.2l-0.2-1c-0.3-1.3-1.4-2.2-2.7-2.2c-1.3,0-2.5,1-2.7,2.3l-0.2,1l-1,0.3
		c-1.4,0.4-2.7,0.9-4,1.7l-0.9,0.5l-0.8-0.6c-1.1-0.7-2.6-0.6-3.5,0.3c-0.9,0.9-1.1,2.4-0.3,3.5l0.6,0.8l-0.5,0.9
		c-0.7,1.3-1.3,2.6-1.7,4l-0.2,1l-1,0.2c-1.3,0.3-2.2,1.4-2.2,2.7c0,1.3,1,2.5,2.3,2.7l1,0.2l0.2,1c0.4,1.4,0.9,2.7,1.7,4l0.5,0.9
		l-0.6,0.8c-0.7,1.1-0.6,2.6,0.3,3.5c0.9,0.9,2.5,1.1,3.5,0.3L-771.7,1093.9z"/>
	<path fill="#FFFFFF" d="M-763,1091.3c-5.7,0-10.3-4.6-10.3-10.3s4.6-10.3,10.3-10.3c5.7,0,10.3,4.6,10.3,10.3
		S-757.3,1091.3-763,1091.3z M-763,1073.8c-3.9,0-7.2,3.2-7.2,7.2s3.2,7.2,7.2,7.2c3.9,0,7.2-3.2,7.2-7.2S-759.1,1073.8-763,1073.8z
		"/>
</g>
<g>
	<path fill="#FFFFFF" d="M-653.1,1102.3h-9c-1,0-1.7-0.8-1.7-1.7v-14.1h-9.5v14.1c0,1-0.8,1.7-1.7,1.7h-9c-1,0-1.7-0.8-1.7-1.7
		v-17.6h-2.5c-0.7,0-1.3-0.4-1.6-1.1c-0.3-0.7-0.1-1.4,0.4-1.9l19.7-19.7c0.7-0.7,1.8-0.7,2.5,0l19.7,19.7c0.5,0.5,0.6,1.2,0.4,1.9
		c-0.3,0.7-0.9,1.1-1.6,1.1h-2.5v17.6C-651.3,1101.5-652.1,1102.3-653.1,1102.3z M-661.5,1100h7.9v-17.6c0-1,0.8-1.7,1.7-1.7h1.8
		l-18.4-18.4l-18.4,18.4h1.8c1,0,1.7,0.8,1.7,1.7v17.6h7.9v-14.1c0-1,0.8-1.7,1.7-1.7h10.6c1,0,1.7,0.8,1.7,1.7V1100z"/>
</g>
<path fill="#FFFFFF" d="M-568.3,1071c-1.7,0-3.4,0.4-4.9,1.2c-0.1-0.9-0.3-1.9-0.6-3c0.7,0.2,1.3,0.3,2,0.3c2.4,0,4.6-0.9,6.2-2.6
	c2.4-2.4,3.2-5.9,2.1-9.1l-0.1-0.3l-0.3-0.1c-0.9-0.3-1.9-0.5-2.9-0.5c-2.4,0-4.6,0.9-6.2,2.6c-1.7,1.7-2.6,4-2.6,6.3
	c-0.9-1.3-2.2-2.4-3.9-3.1c-0.6-0.3-1.3,0-1.5,0.6c-0.3,0.6,0,1.3,0.6,1.5c3.3,1.5,4.4,4.9,4.8,7.3c-1.4-0.7-3-1.1-4.6-1.1
	c-6,0-12.4,3.6-12.4,13.8c0,9.1,6.2,20.3,13.4,20.3c1.8,0,3.5-0.6,5-1.7c1.5,1.1,3.2,1.7,5,1.7c7.2,0,13.4-11.1,13.4-20.3
	C-555.8,1074.6-562.2,1071-568.3,1071z M-572.1,1060.4c1.4-1.4,3.4-2.2,5.4-2.2c0.8,0,1.5,0.1,2.3,0.3c0.8,2.7,0.1,5.7-1.9,7.7
	c-1.4,1.4-3.4,2.2-5.4,2.2c-0.8,0-1.5-0.1-2.3-0.3C-574.8,1065.3-574.1,1062.4-572.1,1060.4z M-569.2,1102.7c-1.5,0-2.9-0.6-4.2-1.7
	l-0.8-0.7l-0.8,0.7c-1.3,1.2-2.7,1.7-4.2,1.7c-5.3,0-11-9.4-11-18c0-7.3,3.7-11.5,10.1-11.5c1.9,0,3.7,0.6,5.2,1.8l0.7,0.5l0.7-0.5
	c1.6-1.2,3.4-1.8,5.2-1.8c6.4,0,10.1,4.2,10.1,11.5C-558.1,1093.3-563.9,1102.7-569.2,1102.7z M-566.8,1086.9c0,0.7-0.6,1.3-1.3,1.3
	h-4.8v4.8c0,0.7-0.6,1.3-1.3,1.3c-0.7,0-1.3-0.6-1.3-1.3v-4.8h-4.8c-0.7,0-1.3-0.6-1.3-1.3s0.6-1.3,1.3-1.3h4.8v-4.8
	c0-0.7,0.6-1.3,1.3-1.3c0.7,0,1.3,0.6,1.3,1.3v4.8h4.8C-567.4,1085.6-566.8,1086.2-566.8,1086.9z"/>
<g>
	<path fill="#FFFFFF" d="M-499.2,1057.7h1.9v46.5h-1.9V1057.7z"/>
	<path fill="#FFFFFF" d="M-501.1,1100.4h46.5v1.9h-46.5V1100.4z"/>
	<path fill="#FFFFFF" d="M-459.5,1098.4h-3.9c-0.5,0-1-0.4-1-1v-7.8c0-0.5,0.4-1,1-1h3.9c0.5,0,1,0.4,1,1v7.8
		C-458.5,1098-458.9,1098.4-459.5,1098.4z M-462.4,1096.5h1.9v-5.8h-1.9V1096.5z"/>
	<path fill="#FFFFFF" d="M-469.2,1098.4h-3.9c-0.5,0-1-0.4-1-1v-15.5c0-0.5,0.4-1,1-1h3.9c0.5,0,1,0.4,1,1v15.5
		C-468.2,1098-468.6,1098.4-469.2,1098.4z M-472.1,1096.5h1.9v-13.6h-1.9V1096.5z"/>
	<path fill="#FFFFFF" d="M-478.9,1098.4h-3.9c-0.5,0-1-0.4-1-1v-9.7c0-0.5,0.4-1,1-1h3.9c0.5,0,1,0.4,1,1v9.7
		C-477.9,1098-478.3,1098.4-478.9,1098.4z M-481.8,1096.5h1.9v-7.8h-1.9V1096.5z"/>
	<path fill="#FFFFFF" d="M-488.5,1098.4h-3.9c-0.5,0-1-0.4-1-1v-29.1c0-0.5,0.4-1,1-1h3.9c0.5,0,1,0.4,1,1v29.1
		C-487.6,1098-488,1098.4-488.5,1098.4z M-491.4,1096.5h1.9v-27.1h-1.9V1096.5z"/>
</g>
<g>
	<path fill="#FFFFFF" d="M-604.2,1138.4v-6.2h1v6.1c0,1.6,0.7,3.2,2.7,3.2c2,0,2.7-1.6,2.7-3.2v-6.1h1v6.2c0,1.7-0.7,4-3.7,4
		S-604.2,1140.1-604.2,1138.4z"/>
	<path fill="#FFFFFF" d="M-593.1,1132.2h2.8c2,0,3.3,0.9,3.3,2.6c0,1.8-1.4,2.7-3.4,2.7h-1.8v4.6h-1V1132.2z M-592.1,1136.7h1.7
		c1.6,0,2.4-0.6,2.4-1.8c0-1.2-0.9-1.8-2.4-1.8h-1.7V1136.7z"/>
	<path fill="#FFFFFF" d="M-583,1141.2h4.6v0.9h-5.6v-9.9h1V1141.2z"/>
	<path fill="#FFFFFF" d="M-571.6,1142.4c-3,0-5.2-2.2-5.2-5.2s2.2-5.2,5.2-5.2c3,0,5.2,2.2,5.2,5.2S-568.6,1142.4-571.6,1142.4z
		 M-571.6,1132.8c-2.5,0-4.1,2-4.1,4.3c0,2.3,1.6,4.3,4.1,4.3c2.5,0,4.1-2,4.1-4.3C-567.5,1134.8-569,1132.8-571.6,1132.8z"/>
	<path fill="#FFFFFF" d="M-563.6,1142.1h-1.1l4.3-9.9h1l4.3,9.9h-1.1l-1.1-2.6h-5.1L-563.6,1142.1z M-562.1,1138.6h4.4l-2.2-5.3
		L-562.1,1138.6z"/>
	<path fill="#FFFFFF" d="M-552.7,1132.2h3.3c2.5,0,5.2,1.7,5.2,5s-2.7,5-5.2,5h-3.3V1132.2z M-551.7,1141.2h2c3,0,4.4-2,4.4-4.1
		s-1.4-4.1-4.4-4.1h-2V1141.2z"/>
</g>
<g>
	<path fill="#FFFFFF" d="M-690.4,1132.2h1v4.3h5.4v-4.3h1v9.9h-1v-4.7h-5.4v4.7h-1V1132.2z"/>
	<path fill="#FFFFFF" d="M-674.7,1142.4c-3,0-5.2-2.2-5.2-5.2s2.2-5.2,5.2-5.2c3,0,5.2,2.2,5.2,5.2S-671.7,1142.4-674.7,1142.4z
		 M-674.7,1132.8c-2.5,0-4.1,2-4.1,4.3c0,2.3,1.6,4.3,4.1,4.3c2.5,0,4.1-2,4.1-4.3C-670.6,1134.8-672.1,1132.8-674.7,1132.8z"/>
	<path fill="#FFFFFF" d="M-661.5,1140.4L-661.5,1140.4l3.3-8.2h1.5v9.9h-1v-8.6h0l-3.6,8.6h-0.5l-3.6-8.6h0v8.6h-1v-9.9h1.5
		L-661.5,1140.4z"/>
	<path fill="#FFFFFF" d="M-651.9,1141.2h5.3v0.9h-6.3v-9.9h6.1v0.9h-5.1v3.4h4.8v0.9h-4.8V1141.2z"/>
</g>
<g>
	<path fill="#FFFFFF" d="M-505.2,1142.1h-1v-9.9h2.9c2,0,3.4,0.7,3.4,2.6c0,1.5-1.1,2.4-2.5,2.5l2.9,4.7h-1.2l-2.7-4.6h-1.7V1142.1z
		 M-505.2,1136.6h1.8c1.6,0,2.5-0.6,2.5-1.8c0-1.3-1-1.8-2.5-1.8h-1.8V1136.6z"/>
	<path fill="#FFFFFF" d="M-495.7,1141.2h5.3v0.9h-6.3v-9.9h6.1v0.9h-5.1v3.4h4.8v0.9h-4.8V1141.2z"/>
	<path fill="#FFFFFF" d="M-487.4,1132.2h2.8c2,0,3.3,0.9,3.3,2.6c0,1.8-1.4,2.7-3.4,2.7h-1.8v4.6h-1V1132.2z M-486.4,1136.7h1.7
		c1.6,0,2.4-0.6,2.4-1.8c0-1.2-0.9-1.8-2.4-1.8h-1.7V1136.7z"/>
	<path fill="#FFFFFF" d="M-473.6,1142.4c-3,0-5.2-2.2-5.2-5.2s2.2-5.2,5.2-5.2c3,0,5.2,2.2,5.2,5.2S-470.6,1142.4-473.6,1142.4z
		 M-473.6,1132.8c-2.5,0-4.1,2-4.1,4.3c0,2.3,1.6,4.3,4.1,4.3c2.5,0,4.1-2,4.1-4.3C-469.5,1134.8-471,1132.8-473.6,1132.8z"/>
	<path fill="#FFFFFF" d="M-464.3,1142.1h-1v-9.9h2.9c2,0,3.4,0.7,3.4,2.6c0,1.5-1.1,2.4-2.5,2.5l2.9,4.7h-1.2l-2.7-4.6h-1.7V1142.1z
		 M-464.3,1136.6h1.8c1.6,0,2.5-0.6,2.5-1.8c0-1.3-1-1.8-2.5-1.8h-1.8V1136.6z"/>
	<path fill="#FFFFFF" d="M-452.8,1142.1h-1v-9h-3.3v-0.9h7.6v0.9h-3.3V1142.1z"/>
</g>
</svg>
