<?xml version="1.0" encoding="utf-8"?>
<!-- Generator: Adobe Illustrator 18.1.1, SVG Export Plug-In . SVG Version: 6.00 Build 0)  -->
<svg version="1.1" id="Layer_1" xmlns="http://www.w3.org/2000/svg" xmlns:xlink="http://www.w3.org/1999/xlink" x="0px" y="0px"
	 viewBox="0 0 64.8 60.7" enable-background="new 0 0 64.8 60.7" xml:space="preserve">
<path fill="#FFFFFF" d="M36.8,15.1c-1.3,0-2.5,0.3-3.6,0.9c-0.1-0.7-0.2-1.4-0.5-2.2c0.5,0.1,1,0.2,1.5,0.2c1.8,0,3.4-0.7,4.7-1.9
	c1.8-1.8,2.4-4.4,1.6-6.8l-0.1-0.2L40.2,5c-0.7-0.2-1.4-0.4-2.2-0.4c-1.8,0-3.4,0.7-4.6,1.9c-1.3,1.3-1.9,3-1.9,4.7
	c-0.7-0.9-1.6-1.8-2.9-2.3c-0.4-0.2-0.9,0-1.1,0.4c-0.2,0.4,0,0.9,0.4,1.1c2.5,1.1,3.3,3.6,3.6,5.4c-1.1-0.5-2.2-0.8-3.4-0.8
	c-4.5,0-9.3,2.7-9.3,10.3c0,6.8,4.6,15.1,10,15.1c1.3,0,2.6-0.4,3.7-1.3c1.1,0.8,2.4,1.3,3.7,1.3c5.4,0,10-8.3,10-15.1
	C46.1,17.8,41.3,15.1,36.8,15.1z M33.9,7.2c1.1-1.1,2.5-1.7,4-1.7c0.6,0,1.1,0.1,1.7,0.2c0.6,2,0.1,4.2-1.4,5.7
	c-1.1,1.1-2.5,1.7-4,1.7c-0.6,0-1.1-0.1-1.7-0.2C31.9,10.9,32.4,8.7,33.9,7.2z M36.1,38.8c-1.1,0-2.2-0.4-3.2-1.3L32.4,37l-0.6,0.5
	c-1,0.9-2,1.3-3.2,1.3c-3.9,0-8.2-7-8.2-13.4c0-5.4,2.8-8.5,7.6-8.5c1.4,0,2.7,0.5,3.9,1.4l0.5,0.4l0.5-0.4c1.2-0.9,2.5-1.4,3.9-1.4
	c4.8,0,7.6,3.1,7.6,8.5C44.4,31.8,40.1,38.8,36.1,38.8z M37.9,27c0,0.5-0.4,1-1,1h-3.6v3.6c0,0.5-0.4,1-1,1c-0.5,0-1-0.4-1-1V28
	h-3.6c-0.5,0-1-0.4-1-1s0.4-1,1-1h3.6v-3.6c0-0.5,0.4-1,1-1c0.5,0,1,0.4,1,1V26h3.6C37.5,26,37.9,26.5,37.9,27z"/>
<g>
	<path fill="#FFFFFF" d="M2.4,53.8v-6.2h1v6.1c0,1.6,0.7,3.2,2.7,3.2c2,0,2.7-1.6,2.7-3.2v-6.1h1v6.2c0,1.7-0.7,4-3.7,4
		S2.4,55.5,2.4,53.8z"/>
	<path fill="#FFFFFF" d="M13.4,47.6h2.8c2,0,3.3,0.9,3.3,2.6c0,1.8-1.4,2.7-3.4,2.7h-1.8v4.6h-1V47.6z M14.4,52.1h1.7
		c1.6,0,2.4-0.6,2.4-1.8c0-1.2-0.9-1.8-2.4-1.8h-1.7V52.1z"/>
	<path fill="#FFFFFF" d="M23.6,56.6h4.6v0.9h-5.6v-9.9h1V56.6z"/>
	<path fill="#FFFFFF" d="M35,57.8c-3,0-5.2-2.2-5.2-5.2s2.2-5.2,5.2-5.2c3,0,5.2,2.2,5.2,5.2S38,57.8,35,57.8z M35,48.2
		c-2.5,0-4.1,2-4.1,4.3c0,2.3,1.6,4.3,4.1,4.3c2.5,0,4.1-2,4.1-4.3C39.1,50.3,37.6,48.2,35,48.2z"/>
	<path fill="#FFFFFF" d="M43,57.5h-1.1l4.3-9.9h1l4.3,9.9h-1.1l-1.1-2.6h-5.1L43,57.5z M44.5,54h4.4l-2.2-5.3L44.5,54z"/>
	<path fill="#FFFFFF" d="M53.9,47.6h3.3c2.5,0,5.2,1.7,5.2,5s-2.7,5-5.2,5h-3.3V47.6z M54.9,56.6h2c3,0,4.4-2,4.4-4.1
		s-1.4-4.1-4.4-4.1h-2V56.6z"/>
</g>
</svg>
